<?xml version="1.0" standalone="no"?>
<!DOCTYPE svg PUBLIC "-//W3C//DTD SVG 1.1//EN" "http://www.w3.org/Graphics/SVG/1.1/DTD/svg11.dtd">
<svg xmlns="http://www.w3.org/2000/svg">
<defs >
<font id="IbarraRealNova" horiz-adv-x="579" ><font-face
    font-family="Ibarra Real Nova Medium"
    units-per-em="1000"
    panose-1="0 0 0 0 0 0 0 0 0 0"
    ascent="950"
    descent="-300"
    alphabetic="0" />
<glyph unicode=" " horiz-adv-x="271" />
<glyph unicode="!" horiz-adv-x="224" d="M93 211L57 658H166L129 211H93ZM112 -7Q87 -7 68 11T49 55Q49 82 68 100T112 119Q138 119 157 101T176 55Q176 30 157 12T112 -7Z" />
<glyph unicode="&quot;" horiz-adv-x="440" d="M284 438L244 710H365L325 438H284ZM115 438L75 710H196L156 438H115Z" />
<glyph unicode="#" horiz-adv-x="485" d="M246 -26L350 674H403L296 -26H246ZM27 176L34 226H424L417 176H27ZM80 -26L185 674H236L129 -26H80ZM61 406L68 456H458L451 406H61Z" />
<glyph unicode="$" horiz-adv-x="572" d="M270 -89V766H304V-89H270ZM292 -9Q209 -9 150 12T55 52Q63 96 63 142T50 235H81Q88 173 114 124T186 47T296 18Q335 18 367 33T420 76T441 143Q441 182 426 207T371 253T259 299Q169 330 121 372T72 492Q72 543 96 587T170
657T290 684Q324 684 347 676T389 659Q404 652 417 647T444 641L471 646L475 643Q474 631 473 619T472 594Q472 570 474 547T481 505T489 471H466Q447 524 423 566T364 632T281 657Q246 657 218 642T172 601T155 538Q155 501 168 477T217 434T324 391Q398 366 441
339T502 276T520 190Q520 133 492 88T412 17T292 -9Z" />
<glyph unicode="%" horiz-adv-x="641" d="M167 344Q120 344 91 367T47 430T32 515Q32 562 46 600T90 660T167 682Q214 682 244 660T288 600T303 515Q303 469 289 430T244 368T167 344ZM167 366Q191 366 203 387T219 442T223 515Q223 554 219 586T203 639T167 659Q144
659 132 639T116 587T112 515Q112 476 116 442T132 387T167 366ZM473 -9Q426 -9 396 14T352 77T338 162Q338 209 352 247T396 307T473 329Q520 329 550 307T594 247T609 162Q609 116 595 77T550 15T473 -9ZM473 13Q497 13 509 34T524 88T528 162Q528 201 525 233T509
286T473 306Q450 306 438 286T422 234T418 162Q418 122 422 89T438 34T473 13ZM509 680H560L131 0H78L509 680Z" />
<glyph unicode="&amp;" horiz-adv-x="768" d="M323 -13Q247 -13 184 14T82 97T44 233Q44 277 63 318T123 389T222 426V429Q169 451 144 478T118 553Q118 592 140 620T201 664T292 680Q335 680 374 667T437 628T462 563Q462 535 447 522T414 509Q393 509 378 521T363
554Q363 571 368 579T377 594Q381 598 383 602T386 611Q386 629 364 639T310 650Q265 650 242 622T219 544Q219 499 242 467T318 415L350 403L341 384L293 391Q253 383 221 358T169 294T150 205Q150 143 173 102T236 39T323 17Q381 17 428 43T504 128T532 281V298Q532
330 521 340T471 357L415 368V387H756V368L698 357Q659 350 648 340T637 298V278Q637 208 614 154T548 63T449 6T323 -13Z" />
<glyph unicode="&apos;" horiz-adv-x="271" d="M115 438L75 710H196L156 438H115Z" />
<glyph unicode="(" horiz-adv-x="300" d="M235 -240Q172 -167 132 -83T72 88T53 257Q53 339 72 426T131 597T235 754L260 737Q200 628 167 508T133 257Q133 127 166 7T260 -223L235 -240Z" />
<glyph unicode=")" horiz-adv-x="300" d="M65 -240L41 -223Q102 -113 135 7T168 257Q168 388 135 508T41 737L65 754Q129 681 169 597T228 426T248 257Q248 175 229 88T169 -83T65 -240Z" />
<glyph unicode="*" horiz-adv-x="422" d="M329 400Q316 408 305 420T282 446Q268 461 252 476T213 505L201 512Q178 526 157 532T115 542Q97 546 81 549T53 560Q35 570 36 587T42 613Q47 621 61 631T93 631Q106 623 117 612T139 586Q154 570 170 555T209 526L221
519Q244 506 265 500T307 489Q325 486 340 482T369 471Q386 461 386 444T380 418Q375 410 361 400T329 400ZM94 401Q76 391 62 400T42 418Q37 426 36 443T52 471Q65 478 81 482T114 489Q135 494 156 500T201 519L213 526Q236 540 252 555T282 586Q294 600 305 611T328
630Q345 641 360 631T380 613Q385 605 386 588T369 560Q356 553 341 550T307 542Q286 538 265 532T221 512L208 505Q186 492 170 477T139 446Q128 433 117 421T94 401ZM211 320Q201 320 186 328T170 356Q170 371 175 386T186 419Q192 439 197 460T203 508V523Q203
549 198 570T186 612Q180 629 175 644T170 675Q170 695 185 703T210 711Q221 711 236 703T251 675Q251 660 247 645T236 612Q230 592 225 571T219 523V508Q219 482 224 461T236 419Q242 402 246 387T251 356Q251 337 236 329T211 320Z" />
<glyph unicode="+" horiz-adv-x="542" d="M249 142V312H74V356H249V526H293V356H468V312H293V142H249Z" />
<glyph unicode="," horiz-adv-x="271" d="M50 -154V-132Q95 -125 122 -96T149 -24Q149 7 125 28T60 56V81Q82 94 95 109T121 152Q167 136 194 105T221 24Q221 -20 200 -59T141 -124T50 -154Z" />
<glyph unicode="-" horiz-adv-x="271" d="M18 319H253V251H18V319Z" />
<glyph unicode="." horiz-adv-x="271" d="M134 -7Q107 -7 86 13T65 61Q65 91 86 111T134 132Q164 132 184 112T205 61Q205 34 185 14T134 -7Z" />
<glyph unicode="/" horiz-adv-x="447" d="M21 -7L384 710H426L64 -7H21Z" />
<glyph unicode="0" horiz-adv-x="589" d="M294 -8Q232 -8 187 19T113 95T70 207T56 342Q56 438 81 515T159 637T294 683Q377 683 430 638T508 515T533 342Q533 270 520 207T477 96T402 20T294 -8ZM294 19Q337 19 363 44T402 115T420 218T425 342Q425 407 420 464T402
564T363 631T294 655Q252 655 226 631T187 564T169 464T164 342Q164 277 168 219T186 115T225 45T294 19Z" />
<glyph unicode="1" horiz-adv-x="406" d="M37 0V19L82 28Q118 35 133 41T152 60T156 100V605Q156 618 150 624T128 629L48 626V646L257 684V100Q257 73 261 60T280 41T331 28L376 19V0H37Z" />
<glyph unicode="2" horiz-adv-x="499" d="M36 0V14L178 180Q224 232 253 275T298 356T320 429T326 500Q326 571 296 611T202 651Q180 651 160 644T128 625T115 595Q115 586 124 575Q129 569 134 561T139 537Q139 515 124 503T87 490Q67 490 52 504T37 544Q37 586
63 617T134 665T229 682Q285 682 332 662T406 601T434 504Q434 440 406 387T331 281T228 167L159 92H356Q383 92 394 103T417 148L426 177H445L414 0H36Z" />
<glyph unicode="3" horiz-adv-x="503" d="M193 -9Q149 -9 111 6T50 49T27 116Q27 144 42 158T79 173Q102 173 115 159T128 126Q128 112 123 103T112 88Q108 82 105 78T101 67Q101 48 128 35T191 22Q226 22 261 38T320 93T344 198Q344 240 328 274T278 330T194
354Q181 349 168 345T141 336L130 354L165 371Q199 388 227 413T273 471T291 540Q291 592 268 622T196 652Q163 652 142 639T120 609Q120 602 123 598T130 587Q135 581 139 573T143 551Q143 531 128 519T92 506Q73 506 59 519T44 560Q44 596 67 623T130 666T218
682Q271 682 310 667T371 622T393 553Q393 503 362 466T275 406V404Q331 400 370 372T431 304T452 220Q452 149 419 98T327 19T193 -9Z" />
<glyph unicode="4" horiz-adv-x="555" d="M191 0V19L242 29Q281 37 292 48T303 90V557L321 550L78 224L71 248H438Q458 248 467 254T482 280L497 322H517L487 172H22V200L387 689H402V90Q402 59 413 48T463 29L514 19V0H191Z" />
<glyph unicode="5" horiz-adv-x="481" d="M182 -10Q136 -10 97 5T34 48T10 117Q10 145 25 158T60 172Q85 172 98 157T111 125Q111 108 106 99T95 83Q90 79 87 76T84 67Q84 46 110 36T167 26Q219 26 255 45T309 101T328 192Q328 245 305 280T239 334T142 352Q129
352 116 351T89 348L83 352L118 669H347Q364 669 374 677T390 701L395 714H414L390 581H144L127 427Q142 429 156 430T183 431Q255 431 311 407T401 334T434 215Q434 150 403 99T316 19T182 -10Z" />
<glyph unicode="6" horiz-adv-x="509" d="M264 -9Q220 -9 181 5T111 52T64 137T46 263Q46 357 72 433T148 566T264 653T413 683L414 669Q339 654 289 617T209 524T167 401T154 255Q154 172 169 120T209 43T265 18Q318 18 344 65T370 206Q370 255 360 293T328 354T269
376Q229 376 204 354T165 296T151 217L133 298Q138 329 158 355T212 398T287 414Q351 414 393 385T456 308T477 207Q477 137 447 89T368 16T264 -9Z" />
<glyph unicode="7" horiz-adv-x="485" d="M108 0L394 583H96Q85 583 75 576T58 555L42 513H24L51 674H450V602L223 0H108Z" />
<glyph unicode="8" horiz-adv-x="546" d="M268 -12Q211 -12 162 8T83 67T52 158Q52 206 77 246T141 316T224 358L251 339Q199 311 178 268T157 179Q157 103 192 63T283 22Q338 22 367 58T396 147Q396 190 374 219T318 271T246 317Q206 341 167 366T103 426T78
512Q78 557 101 595T171 658T288 682Q337 682 379 664T446 613T472 532Q472 492 451 460T395 404T321 368L295 386Q339 415 358 456T377 538Q377 594 348 621T272 649Q248 649 225 638T186 605T170 547Q170 510 191 483T246 435T317 390Q359 365 399 338T466 273T493
181Q493 124 464 81T384 13T268 -12Z" />
<glyph unicode="9" horiz-adv-x="509" d="M245 684Q289 684 328 670T398 623T446 538T464 412Q464 318 437 242T361 109T245 22T96 -8L95 6Q170 21 220 58T300 151T343 274T356 420Q356 503 341 555T300 632T244 657Q191 657 165 610T139 469Q139 421 149 383T181
322T240 299Q280 299 306 321T344 379T359 458L377 377Q372 346 352 320T298 277T222 261Q159 261 117 290T53 367T32 468Q32 539 62 587T142 659T245 684Z" />
<glyph unicode=":" horiz-adv-x="271" d="M134 248Q107 248 86 268T65 316Q65 346 86 366T134 387Q164 387 184 367T205 316Q205 289 185 269T134 248ZM134 307Q107 307 86 327T65 375Q65 405 86 425T134 446Q164 446 184 426T205 375Q205 348 185 328T134 307Z" />
<glyph unicode=";" horiz-adv-x="271" d="M130 307Q103 307 82 327T61 375Q61 405 82 425T130 446Q160 446 180 426T201 375Q201 348 181 328T130 307ZM50 -154V-132Q95 -125 122 -96T149 -24Q149 7 125 28T60 56V81Q82 94 95 109T121 152Q167 136 194 105T221
24Q221 -20 200 -59T141 -124T50 -154Z" />
<glyph unicode="&lt;" horiz-adv-x="542" d="M469 184V134L79 318L80 350L469 532V483L140 334L469 184Z" />
<glyph unicode="=" horiz-adv-x="542" d="M74 426V470H468V426H74ZM74 453V497H468V453H74Z" />
<glyph unicode="&gt;" horiz-adv-x="542" d="M73 184L402 334L73 483V532L462 350L463 318L73 134V184Z" />
<glyph unicode="?" horiz-adv-x="370" d="M88 197Q88 261 98 296T134 348T209 373Q244 379 261 386T283 407T289 441Q289 472 276 484T233 503L63 531V673H81L86 646Q89 629 99 620T123 608L220 592Q278 582 303 548T328 443Q328 373 303 331T205 277Q169 272
151 263T126 237T119 197H88ZM104 -7Q79 -7 61 11T42 54Q42 81 60 99T104 118Q130 118 148 100T167 54Q167 30 149 12T104 -7Z" />
<glyph unicode="@" horiz-adv-x="982" d="M501 -208Q411 -208 329 -181T183 -100T82 36T44 228Q44 322 80 404T181 548T331 646T513 681Q620 681 701 649T837 564T920 444T948 307Q948 229 925 172T864 78T782 22T694 4Q660 4 632 16T587 51T570 109L579 115L584
77Q565 61 542 44T494 15T446 3Q416 3 390 22T348 72T332 136Q332 153 335 160T346 170L526 240Q547 248 555 258T563 286V312Q563 357 542 385T479 414Q452 414 433 403T414 368Q414 364 417 359T424 348Q429 340 432 331T436 311Q436 291 421 279T388 267Q367
267 353 281T338 320Q338 354 361 381T422 424T499 440Q546 440 578 423T628 375T645 304V141Q645 83 660 64T718 45Q759 45 792 75T845 164T865 306Q865 369 844 429T778 538T667 616T509 645Q430 645 360 616T237 532T154 401T124 229Q124 125 154 50T238 -72T361
-142T506 -165Q588 -165 673 -139T830 -63L850 -90Q777 -148 686 -178T501 -208ZM481 58Q499 58 516 66T549 86Q564 96 564 117V214Q564 217 562 219T556 219L427 165Q422 163 420 157T417 136Q417 118 427 100T452 70T481 58Z" />
<glyph unicode="A" horiz-adv-x="765" d="M5 0V19L55 29Q86 34 102 46T127 81L330 573L306 635Q331 636 347 647T371 673T380 698H390L640 94Q654 59 671 47T717 28L760 19V0H425V19L478 29Q507 34 518 41T530 60Q530 67 527 76T519 98L338 555H360L163 80Q160
74 159 69T157 59Q157 48 166 42T192 32L263 19V0H5ZM224 228L219 260H509V228H224Z" />
<glyph unicode="B" horiz-adv-x="701" d="M37 0V19L95 30Q134 38 145 48T156 89V584Q156 616 145 626T95 643L37 654V673H378Q447 673 497 654T575 599T603 517Q603 454 558 421T442 375V373Q490 368 535 348T610 291T640 199Q640 130 602 86T500 21T358 0H37ZM330
27H355Q400 27 437 47T497 104T520 194Q520 241 501 277T445 335T353 356H260V89Q260 56 274 42T330 27ZM260 384H360Q422 384 457 423T493 515Q493 577 456 611T348 646H260V384Z" />
<glyph unicode="C" horiz-adv-x="736" d="M410 -11Q329 -11 262 15T146 88T71 199T44 335Q44 411 72 475T151 585T267 656T406 682Q462 682 497 674T557 655Q578 648 595 642T632 636Q643 636 651 638T669 641L672 639Q666 609 668 567T684 463H662Q644 510 609
553T524 625T408 654Q340 654 284 614T193 503T158 336Q158 244 190 172T280 58T410 16Q439 16 474 25T546 55T614 115T667 211H690Q679 163 671 116T663 26H654Q631 26 605 21T548 9Q515 2 480 -4T410 -11Z" />
<glyph unicode="D" horiz-adv-x="799" d="M37 0V19L95 30Q134 38 145 48T156 89V584Q156 616 145 626T95 643L37 654V673H366Q456 673 527 646T650 572T728 465T756 337Q756 260 727 198T645 91T521 24T365 0H37ZM359 27Q439 27 502 63T603 168T640 337Q640 436
605 505T504 610T345 647H261V82Q261 55 282 41T359 27Z" />
<glyph unicode="E" horiz-adv-x="681" d="M37 0V19L95 30Q134 38 145 48T156 89V584Q156 616 145 626T95 643L37 654V673H607Q604 659 603 645T602 617Q602 582 608 551T617 496H597Q581 539 560 573T506 626T423 646H262V370H411Q463 370 481 388T508 447L516
494H536V216H516L507 264Q500 304 482 322T412 340H262V99Q262 73 267 57T288 34T337 27H424Q463 27 496 41T553 79T593 126L624 180H644Q631 135 625 88T618 0H37Z" />
<glyph unicode="F" horiz-adv-x="645" d="M37 0V19L95 30Q134 38 145 48T156 89V584Q156 616 145 626T95 643L37 654V673H607Q604 659 603 645T601 617Q601 582 607 551T617 496H596Q589 520 575 546T540 595T493 632T432 646H262V350H394Q426 350 449 355T487
376T508 427L516 474H535V198L516 197L507 242Q501 277 486 293T447 315T394 320H261V89Q261 58 272 48T322 30L386 19V0H37Z" />
<glyph unicode="G" horiz-adv-x="804" d="M406 -12Q329 -12 264 13T149 85T72 196T44 336Q44 412 73 475T153 585T269 656T407 682Q456 682 490 675T550 659T597 643T641 636Q653 636 663 638T678 642L681 640Q679 632 677 619T675 594Q675 569 678 541T686 493T692
468H668Q650 515 614 557T525 627T408 654Q354 654 308 629T229 559T177 458T158 338Q158 281 172 224T217 119T295 44T410 16Q449 16 494 30T572 75V215Q572 247 561 257T511 274L453 285V304H788V285L742 276Q703 269 692 259T681 217V26L676 24Q667 26 657 27T634
28Q617 28 595 23T545 10Q515 2 480 -5T406 -12Z" />
<glyph unicode="H" horiz-adv-x="848" d="M468 0V19L526 30Q565 38 576 48T587 89V584Q587 616 576 626T526 643L468 654V673H811V654L753 643Q714 636 703 626T692 584V89Q692 58 703 48T753 30L811 19V0H468ZM37 0V19L95 30Q134 38 145 48T156 89V584Q156 616
145 626T95 643L37 654V673H380V654L322 643Q283 636 272 626T261 584V89Q261 58 272 48T322 30L380 19V0H37ZM238 341L235 370H620L622 341H238Z" />
<glyph unicode="I" horiz-adv-x="417" d="M37 0V19L95 30Q134 38 145 48T156 89V584Q156 616 145 626T95 643L37 654V673H380V654L322 643Q283 636 272 626T261 584V89Q261 58 272 48T322 30L380 19V0H37Z" />
<glyph unicode="J" horiz-adv-x="424" d="M79 -185Q46 -185 21 -170T-20 -130T-35 -82Q-35 -49 -16 -33T27 -17Q58 -17 72 -35T87 -76Q87 -97 73 -114T37 -132Q30 -132 30 -135Q30 -142 45 -150T81 -158Q121 -158 148 -130T176 -30V584Q176 616 165 626T115 643L57
654V673H400V654L342 643Q303 636 292 626T281 584V-45H276Q262 -45 253 -59T231 -94Q218 -116 200 -137T152 -171T79 -185Z" />
<glyph unicode="K" horiz-adv-x="790" d="M37 0V19L95 30Q134 38 145 48T156 89V584Q156 616 145 626T95 643L37 654V673H380V654L322 643Q283 636 272 626T261 584V312L567 591Q592 612 589 624T549 644L497 654V673H761V654L719 645Q696 640 677 632T638 609T591
569L405 403L700 58Q718 38 734 31T777 19V0H686Q644 0 616 11T562 51L321 324L261 269V89Q261 58 272 48T322 30L380 19V0H37Z" />
<glyph unicode="L" horiz-adv-x="703" d="M37 0V19L95 30Q134 38 145 48T156 89V584Q156 616 145 626T95 643L37 654V673H380V654L322 643Q283 636 272 626T261 584V91Q261 57 276 42T337 27H474Q514 27 547 41T604 79T642 126L675 185H695Q682 140 675 91T668 0H37Z" />
<glyph unicode="M" horiz-adv-x="970" d="M455 -8L210 567L185 90Q184 61 196 50T246 32L311 19V0H34V19L94 31Q119 37 131 42T149 59T155 90L178 580Q180 612 168 624T117 645L73 654V673H277L497 169L706 673H921V654L864 644Q825 637 814 625T803 579L818 89Q819
68 823 57T840 41T879 30L937 19V0H608V19L672 32Q697 37 704 45T711 73L697 560L464 -8H455Z" />
<glyph unicode="N" horiz-adv-x="849" d="M693 -16L190 553V94Q190 65 202 52T251 31L316 19V0H38V19L98 31Q135 38 147 50T159 92V579Q159 601 155 613T136 632T87 645L39 655V673H222L675 170L674 579Q674 609 662 622T613 642L549 654V673H827V654L766 642Q730
636 718 624T705 581V-16H693Z" />
<glyph unicode="O" horiz-adv-x="802" d="M400 -12Q323 -12 258 14T145 87T71 196T44 328Q44 404 70 468T145 581T258 656T400 683Q478 683 543 657T657 583T731 473T758 341Q758 265 732 201T657 89T544 15T400 -12ZM400 18Q472 18 526 59T611 173T642 340Q642
428 612 498T527 610T400 652Q330 652 276 611T190 496T159 328Q159 263 177 207T227 108T303 42T400 18Z" />
<glyph unicode="P" horiz-adv-x="666" d="M38 0V19L96 30Q135 38 146 48T157 89V575Q157 602 152 615T132 633T84 645L37 654V673H353Q438 673 500 649T597 582T631 480Q631 434 612 400T560 342T489 307T413 293T344 299V306Q391 309 430 326T493 380T517 479Q517
570 468 608T333 646H262V89Q262 58 273 48T323 30L383 19V0H38Z" />
<glyph unicode="Q" horiz-adv-x="803" d="M514 14Q523 -1 550 -19T617 -55T702 -87T795 -110T882 -119L888 -136Q853 -143 818 -146T741 -150Q677 -150 615 -137T490 -92T364 -5L514 14ZM400 -12Q323 -12 258 14T145 87T71 196T44 328Q44 404 70 468T145 581T258
656T400 683Q478 683 543 657T657 583T731 474T758 341Q758 265 732 201T657 89T544 15T400 -12ZM400 18Q472 18 526 59T611 173T642 340Q642 428 612 498T527 610T400 652Q330 652 276 611T190 496T159 328Q159 263 177 207T227 108T303 42T400 18Z" />
<glyph unicode="R" horiz-adv-x="779" d="M715 -14Q667 -14 630 6T562 61T498 138Q470 178 443 214T381 275T293 299H261V89Q261 58 272 48T322 30L380 19V0H37V19L95 30Q134 38 145 48T156 89V584Q156 616 145 626T95 643L37 654V673H317Q456 673 532 623T609
488Q609 442 583 406T514 348T420 320V317Q466 316 499 293T559 235T612 159Q638 122 664 89T717 36T774 15V-5Q746 -14 715 -14ZM261 328H317Q373 328 413 346T476 399T498 482Q498 563 447 605T304 647H261V328Z" />
<glyph unicode="S" horiz-adv-x="572" d="M292 -9Q209 -9 150 12T55 52Q63 96 63 142T50 235H81Q88 173 114 124T186 47T296 18Q335 18 367 33T420 76T441 143Q441 182 426 207T371 253T259 299Q169 330 121 372T72 492Q72 543 96 587T170 657T290 684Q324 684
347 676T389 659Q404 652 417 647T444 641L471 646L475 643Q474 631 473 619T472 594Q472 570 474 547T481 505T489 471H466Q447 524 423 566T364 632T281 657Q246 657 218 642T172 601T155 538Q155 501 168 477T217 434T324 391Q398 366 441 339T502 276T520 190Q520
133 492 88T412 17T292 -9Z" />
<glyph unicode="T" horiz-adv-x="697" d="M177 0V19L235 30Q274 38 285 48T296 89V646H208Q160 646 126 625T71 569T36 490H14Q20 525 24 556T28 615T24 673H672Q668 644 668 616T672 556T683 490H661Q649 533 627 568T571 625T489 646H401V89Q401 58 412 48T462
30L520 19V0H177Z" />
<glyph unicode="U" horiz-adv-x="784" d="M389 -12Q339 -12 294 4T214 52T161 127T141 226V584Q141 616 130 626T80 643L22 654V673H365V654L307 643Q268 636 257 626T246 584V228Q246 140 294 92T427 43Q484 43 524 66T586 131T608 230V579Q608 609 596 622T547
642L483 654V673H760V654L700 642Q664 636 652 624T639 581V110Q621 110 607 97T574 64Q558 47 535 30T477 0T389 -12Z" />
<glyph unicode="V" horiz-adv-x="766" d="M380 -15L121 588Q109 616 95 627T51 645L5 654V673H333V654L285 645Q260 641 243 634T226 612Q226 606 230 595T237 574L431 121H415L599 578Q603 588 606 596T609 610Q609 623 598 630T557 642L502 654V673H761V654L713
643Q686 637 670 627T640 584L399 -15H380Z" />
<glyph unicode="W" horiz-adv-x="1133" d="M348 -11L123 584Q113 612 98 625T52 645L6 654V673H341V654L278 642Q244 636 237 624T241 583L394 156L551 579Q563 611 558 623T518 642L455 654V673H745V654L679 642Q657 637 648 631T639 614T647 581L800 154L963
587Q973 614 966 623T922 641L859 654V673H1127V654L1070 644Q1039 639 1023 625T995 581L773 -11H754L564 516L368 -11H348Z" />
<glyph unicode="X" horiz-adv-x="789" d="M10 0V19L59 27Q89 32 114 44T159 77L347 317L155 588Q137 612 118 626T63 647L28 653V673H379V654L316 643Q282 637 273 625T283 585L423 389L578 588Q592 606 589 620T562 639L492 654V673H771V654L722 646Q691 641
667 628T622 593L443 363L629 110Q659 69 683 51T744 26L779 20V0H426V19L479 29Q503 33 516 40T530 60T514 95L368 291L203 82Q189 64 192 52T219 34L289 19V0H10Z" />
<glyph unicode="Y" horiz-adv-x="721" d="M332 289L106 607Q94 624 81 633T45 646L8 653V673H336V655L284 646Q249 640 239 626T250 581L407 358H389L542 590Q554 609 551 621T523 638L453 654V673H713V654L668 646Q643 642 623 631T586 592L393 302L332 289ZM191
0V19L249 30Q288 38 299 48T310 89V337L415 346V89Q415 58 426 48T476 30L534 19V0H191Z" />
<glyph unicode="Z" horiz-adv-x="668" d="M29 0V13L484 646H281Q227 646 191 629T129 575T83 484H63Q71 516 75 551T79 620Q79 633 78 646T74 673H621V659L170 27H397Q451 27 496 49T575 109T625 192H646Q634 142 627 95T620 0H29Z" />
<glyph unicode="[" horiz-adv-x="285" d="M62 -215V744H256V708H132V-179H256V-215H62Z" />
<glyph unicode="\" horiz-adv-x="447" d="M426 -7H384L21 710H64L426 -7Z" />
<glyph unicode="]" horiz-adv-x="285" d="M223 -215H29V-179H153V708H29V744H223V-215Z" />
<glyph unicode="^" horiz-adv-x="534" d="M37 314L239 659H295L497 314H430L251 609H283L104 314H37Z" />
<glyph unicode="_" horiz-adv-x="542" d="M0 -93V-52H542V-93H0Z" />
<glyph unicode="`" horiz-adv-x="540" d="M601 541L453 661Q446 667 440 675T434 695Q434 710 445 721T471 731Q490 731 502 714L619 556L601 541Z" />
<glyph unicode="a" horiz-adv-x="472" d="M177 -7Q144 -7 116 12T71 63T54 129Q54 146 57 153T68 163L264 235Q286 243 294 253T302 283V306Q302 352 281 382T214 413Q185 413 166 400T147 366Q147 360 150 354T158 342Q165 334 169 325T173 304Q173 284 159 272T122
260Q99 260 86 273T72 313Q72 348 95 376T157 422T234 439Q281 439 314 422T366 374T385 302V90Q385 70 389 56T413 41Q433 41 458 51V33Q439 21 410 7T359 -7Q338 -7 327 3T311 32T305 73V85L321 69Q300 52 276 35T226 5T177 -7ZM213 45Q231 45 249 53T287 76Q303
88 303 111V211Q303 214 301 216T295 216L150 162Q144 160 142 153T139 130Q139 109 150 90T178 58T213 45Z" />
<glyph unicode="b" horiz-adv-x="548" d="M103 -12L90 -10V607Q90 627 85 634T65 646L24 657V669Q66 677 102 686T175 711L184 705Q176 686 174 663T171 607V382L259 428Q266 431 276 435T297 439Q369 439 416 409T486 330T509 224Q509 168 486 114T413 26T289
-8Q250 -8 212 7T149 47Q136 34 125 20T103 -12ZM290 20Q336 20 365 44T408 107T422 190Q422 240 406 283T358 354T274 382Q225 382 198 356T171 293V154Q171 117 188 87T232 38T290 20Z" />
<glyph unicode="c" horiz-adv-x="448" d="M243 -8Q183 -8 137 20T65 97T39 207Q39 277 70 329T150 410T255 439Q331 439 372 406T414 324Q414 295 398 281T363 267Q342 267 326 280T310 315Q310 330 317 344Q319 349 321 354T324 366Q324 387 303 399T250 412Q220
412 191 393T145 335T127 232Q127 145 171 100T277 54Q342 54 404 107L418 95Q380 41 333 17T243 -8Z" />
<glyph unicode="d" horiz-adv-x="557" d="M251 -8Q179 -8 132 22T62 102T39 207Q39 249 52 290T91 365T159 419T255 439Q292 439 324 431T375 408V607Q375 627 370 635T350 646L302 657V669Q345 677 385 686T461 711L470 705Q462 686 460 663T457 607V80Q457 50
477 38T538 27V6Q503 5 470 1T400 -8L392 -4L384 51H380L288 3Q281 -1 271 -4T251 -8ZM274 46Q321 46 349 74T377 137V277Q377 314 360 344T317 392T258 410Q213 410 184 387T140 324T126 240Q126 187 141 143T190 73T274 46Z" />
<glyph unicode="e" horiz-adv-x="452" d="M244 -8Q185 -8 139 21T66 100T39 210Q39 278 67 329T143 410T252 439Q301 439 337 416T393 354T413 264Q413 257 409 252T395 246H96V272L304 279Q322 279 322 298Q322 347 302 379T243 412Q190 412 159 362T127 232Q127
174 147 135T202 75T278 54Q340 54 403 107L416 95Q378 41 333 17T244 -8Z" />
<glyph unicode="f" horiz-adv-x="331" d="M34 0V16L73 27Q88 31 93 39T99 61V401H33V431H99V495Q99 563 121 611T186 685T289 711Q339 711 372 691T405 637Q405 615 392 602T358 588Q335 588 322 600T308 631Q308 637 309 641T313 649Q314 652 315 655T317 663Q317
673 307 679T283 685Q244 685 222 661T190 593T181 490V431H309L299 401H181V59Q181 46 187 39T209 27L259 16V0H34Z" />
<glyph unicode="g" horiz-adv-x="502" d="M238 -260Q170 -260 123 -245T51 -202T27 -142Q27 -114 48 -86T112 -37T217 -14L232 -21Q167 -30 137 -59T107 -119Q107 -158 146 -187T261 -216Q342 -216 389 -187T436 -115Q436 -68 394 -44T283 -20Q255 -20 228 -22T173
-24Q120 -24 85 -3T50 56Q50 58 51 60T57 65Q84 86 105 103T143 145V149Q104 169 83 205T62 282Q62 351 108 395T230 439Q250 439 271 435T313 425Q332 420 350 417T382 413Q409 413 409 430Q409 438 406 445T397 461Q392 468 389 475T385 491Q385 511 396 520T424
529Q445 529 456 513T468 473Q468 424 448 403T397 382Q375 382 351 393V388Q376 365 386 338T396 276Q396 235 377 202T321 150T235 130Q181 128 155 113T129 79Q129 65 142 58T184 50Q208 50 238 52T295 54Q351 54 395 40T464 -4T489 -80Q489 -128 458 -169T370
-235T238 -260ZM232 158Q269 158 290 190T311 280Q311 339 290 375T228 411Q193 411 172 379T150 290Q150 231 172 195T232 158Z" />
<glyph unicode="h" horiz-adv-x="545" d="M319 0V16L358 27Q372 31 378 39T384 61V281Q384 328 359 352T285 377Q238 377 210 347T181 273L158 374H180Q206 385 238 402T298 434Q303 436 308 437T317 439Q388 439 427 404T466 300V59Q466 45 472 38T492 27L531
16V0H319ZM34 0V16L73 27Q87 31 93 39T99 61L100 607Q100 627 95 634T75 646L34 657V669Q76 677 112 686T185 711L195 705Q187 686 185 663T182 607L181 59Q181 45 187 38T207 27L246 16V0H34Z" />
<glyph unicode="i" horiz-adv-x="267" d="M34 0V16L73 27Q99 35 99 61V339Q99 359 94 367T74 378L34 389V401Q76 409 112 418T184 444L193 437Q186 418 184 395T181 339V59Q181 46 188 38T206 27L245 16V0H34ZM138 557Q114 557 96 575T77 618Q77 644 95 662T138
681Q164 681 182 663T201 618Q201 594 183 576T138 557Z" />
<glyph unicode="j" horiz-adv-x="261" d="M15 -259Q-18 -259 -35 -244T-52 -206Q-52 -185 -38 -170T-2 -155Q21 -155 34 -167T48 -200Q48 -205 47 -208T46 -213Q46 -220 54 -220Q65 -220 74 -211T89 -180T95 -128V339Q95 359 89 367T70 378L30 389V401Q72 409
108 418T180 444L189 437Q181 418 179 395T177 339V-118Q171 -118 167 -120T159 -130Q135 -190 101 -224T15 -259ZM134 557Q110 557 92 575T73 618Q73 644 91 662T134 681Q160 681 178 663T197 618Q197 594 179 576T134 557Z" />
<glyph unicode="k" horiz-adv-x="539" d="M35 0V16L74 27Q89 31 94 39T100 61V607Q100 627 95 634T75 646L34 657V669Q76 677 112 686T185 711L195 705Q187 686 185 663T182 607V59Q182 45 189 38T208 27L247 16V0H35ZM303 0V16L337 23Q351 26 353 35T348 55L232
232L293 286L441 61Q452 44 464 36T493 23L522 16V0H303ZM172 141L156 169L361 382Q367 388 365 395T353 405L306 415V431H489V415L447 406Q432 402 425 398T409 385L172 141Z" />
<glyph unicode="l" horiz-adv-x="274" d="M34 0V16L73 27Q87 31 93 39T99 61L100 607Q100 627 95 634T75 646L34 657V669Q76 677 112 686T185 711L195 705Q187 686 185 663T182 607L181 59Q181 45 187 38T207 27L246 16V0H34Z" />
<glyph unicode="m" horiz-adv-x="801" d="M575 0V16L614 27Q629 31 634 39T640 61V281Q640 327 617 352T549 377Q505 377 478 347T451 273L428 374H450Q474 385 507 402T565 434Q573 439 581 439Q648 439 685 404T722 300V59Q722 45 729 38T748 27L787 16V0H575ZM34
0V16L73 27Q87 31 93 39T99 61V338Q99 358 94 366T74 378L34 388V401Q62 406 86 411T132 424T178 443L187 436Q181 424 178 406T174 371V361L181 344V59Q181 45 187 38T207 27L246 16V0H34ZM304 0V16L343 27Q358 31 364 39T370 61V281Q370 327 346 352T278 377Q234
377 208 347T181 273L157 374H179Q204 385 237 402T294 434Q303 439 310 439Q377 439 414 404T451 300V59Q451 45 458 38T478 27L517 16V0H304Z" />
<glyph unicode="n" horiz-adv-x="544" d="M318 0V16L357 27Q372 31 377 39T383 61V281Q383 328 358 352T285 377Q238 377 210 347T181 273L157 374H179Q205 385 238 402T298 434Q308 439 316 439Q387 439 426 404T465 300V59Q465 45 472 38T492 27L531 16V0H318ZM34
0V16L73 27Q87 31 93 39T99 61V338Q99 358 94 366T74 378L34 388V401Q62 406 86 411T132 424T178 443L187 436Q181 424 178 406T174 371V361L181 344V59Q181 45 187 38T207 27L246 16V0H34Z" />
<glyph unicode="o" horiz-adv-x="506" d="M253 -8Q189 -8 141 21T66 100T39 212Q39 279 65 330T140 410T253 439Q317 439 365 410T440 332T467 220Q467 153 441 102T366 22T253 -8ZM254 18Q312 18 343 67T375 209Q375 305 344 359T252 413Q194 413 163 365T131
223Q131 127 162 73T254 18Z" />
<glyph unicode="p" horiz-adv-x="546" d="M24 -250V-234L63 -223Q78 -219 83 -211T89 -189V339Q89 359 84 367T64 378L24 389V401Q52 407 76 412T122 425T168 443L177 436Q172 426 169 411T164 380H166L257 428Q264 432 274 435T294 439Q367 439 414 409T484 329T507
224Q507 182 494 141T455 65T387 12T291 -8Q255 -8 223 1T171 22V-191Q171 -204 177 -211T199 -223L243 -234V-250H24ZM288 20Q334 20 363 44T406 107T420 190Q420 240 405 283T357 354T272 382Q224 382 197 356T169 293V154Q169 117 186 87T230 38T288 20Z" />
<glyph unicode="q" horiz-adv-x="547" d="M304 -250V-234L348 -223Q364 -219 370 -212T376 -191V49L289 3Q282 0 272 -4T252 -8Q180 -8 133 22T62 102T39 207Q39 264 62 317T135 404T259 439Q299 439 337 424T399 384Q413 396 424 411T445 444L458 442V-189Q458
-203 463 -211T484 -223L523 -234V-250H304ZM275 49Q323 49 350 75T377 137V277Q377 314 360 344T317 392T258 410Q213 410 184 387T140 324T126 240Q126 191 142 148T190 77T275 49Z" />
<glyph unicode="r" horiz-adv-x="374" d="M34 0V16L73 27Q88 31 93 39T99 61V338Q99 358 94 366T74 378L34 388V401Q62 406 86 411T132 424T178 443L187 436Q181 424 178 406T174 371V361L181 344V59Q181 46 187 39T209 27L253 16V0H34ZM181 275L163 362L280 431Q289
436 297 438T312 440Q332 440 348 425T364 385Q364 365 349 349T308 333Q293 333 283 340T264 355Q259 361 253 367T238 373Q231 373 217 365T192 336T181 275Z" />
<glyph unicode="s" horiz-adv-x="377" d="M188 -8Q143 -8 104 6T44 33Q46 62 46 93T40 155H70Q76 116 92 85T135 35T200 17Q229 17 250 37T272 88Q272 113 263 129T231 160T164 190Q109 212 81 240T52 319Q52 350 70 377T122 422T200 439Q230 439 249 433T289
418H313Q311 383 312 357T319 299H295Q283 354 257 384T192 414Q161 414 142 396T122 350Q122 326 130 311T160 283T222 256Q285 233 313 204T341 123Q341 91 325 61T274 11T188 -8Z" />
<glyph unicode="t" horiz-adv-x="337" d="M179 -8Q90 -8 90 105V401H24V423Q86 436 114 469T149 565H172V431H301L291 401H172V114Q172 75 185 60T219 45Q235 45 254 52T294 71L307 52Q271 23 238 8T179 -8Z" />
<glyph unicode="u" horiz-adv-x="541" d="M221 -7Q156 -7 117 25T78 132V359Q78 379 72 386T53 399L14 413V425Q43 426 67 428T115 433T163 441L173 435Q167 422 164 405T160 369V152Q160 105 185 80T255 55Q298 55 324 85T351 158L375 57H353Q328 46 295 30T236
-2Q227 -7 221 -7ZM376 -8L367 -4L359 63L351 88V359Q351 379 345 386T326 399L287 413V425Q316 426 340 428T388 433T436 441L446 435Q440 422 437 405T433 369V80Q433 50 453 38T514 27V6Q479 5 446 1T376 -8Z" />
<glyph unicode="v" horiz-adv-x="486" d="M239 -11L67 384Q62 395 56 400T36 408L5 415V431H227V415L182 405Q168 401 162 395T160 376L280 96H264L381 383Q384 391 382 396T363 404L317 415V431H481V415L447 406Q434 403 428 398T416 382L255 -11H239Z" />
<glyph unicode="w" horiz-adv-x="726" d="M232 -10L70 384Q65 395 59 400T39 408L8 415V431H230V415L183 404Q169 400 164 394T163 376L265 132L357 379Q361 390 358 395T341 404L294 416V431H488V416L437 404Q425 400 420 394T420 377L524 130L616 377Q621 389
619 395T604 404L554 415V431H718V415L683 406Q670 403 664 398T653 382L506 -9H492L363 300L246 -10H232Z" />
<glyph unicode="x" horiz-adv-x="496" d="M9 0V16L52 26Q69 30 80 38T106 63L220 216L219 184L88 384Q82 394 73 399T50 408L19 415V431H246V415L208 404Q194 400 189 394T189 378L285 231L247 226L349 375Q358 386 356 395T341 407L301 416V431H475V416L435 405Q415
401 405 395T383 372L272 215L279 246L416 48Q422 39 432 33T456 23L487 16V0H259V16L293 26Q311 32 316 38T314 56L213 205H248L139 57Q129 46 130 36T145 23L183 16V0H9Z" />
<glyph unicode="y" horiz-adv-x="480" d="M79 -259Q53 -259 37 -244T20 -207Q20 -182 35 -166T74 -150Q86 -150 94 -154T109 -164Q115 -168 120 -171T130 -174Q146 -174 156 -150L226 22L68 384Q63 395 57 400T37 408L6 415V431H229V415L183 405Q169 401 163 395T161
376L281 93H257L375 383Q378 391 375 396T357 404L310 415V431H475V415L440 406Q427 403 421 398T410 382L190 -158Q178 -187 163 -209T127 -245T79 -259Z" />
<glyph unicode="z" horiz-adv-x="411" d="M21 0V6L275 405H193Q156 405 132 393T92 363T70 326T61 290H37Q45 314 48 338T51 384Q51 397 50 408T47 431H384V427L129 26H233Q271 26 298 41T343 83T370 143H390Q381 106 378 73T375 7V0H21Z" />
<glyph unicode="{" horiz-adv-x="354" d="M323 -216Q285 -216 245 -211T170 -190T114 -144T92 -63Q92 -28 101 12T118 92T126 166Q126 199 114 217T81 242T33 249V280Q60 280 81 286T114 311T126 362Q126 397 118 437T101 517T92 592Q92 642 113 672T169 717T244
738T323 744V715Q277 714 243 704T190 668T172 594Q172 564 175 535T182 477Q185 454 187 431T189 386Q189 347 178 322T148 283T107 265V264Q129 259 147 246T177 207T189 142Q189 119 187 93T180 40Q177 14 175 -12T172 -65Q172 -113 190 -139T242 -175T323 -187V-216Z"
/>
<glyph unicode="|" horiz-adv-x="274" d="M113 711H161V-260H113V711Z" />
<glyph unicode="}" horiz-adv-x="354" d="M31 -216V-187Q78 -185 112 -175T164 -139T182 -65Q182 -39 180 -13T174 40Q170 67 168 93T165 142Q165 182 176 207T207 245T247 264V265Q226 270 207 283T177 321T165 386Q165 408 167 431T172 477Q176 506 179 535T182
594Q182 642 164 668T112 704T31 715V744Q69 744 109 739T184 718T240 672T262 592Q262 558 254 518T237 437T228 362Q228 329 240 311T273 287T321 280V249Q295 249 274 242T240 217T228 166Q228 132 236 92T253 12T262 -63Q262 -113 241 -143T185 -189T110 -210T31
-216Z" />
<glyph unicode="~" horiz-adv-x="542" d="M100 287L64 295Q75 342 103 361T167 381Q195 381 224 374T281 356Q307 346 332 339T378 331Q402 331 417 341T441 379L477 372Q467 325 438 305T373 285Q346 285 317 293T260 311Q234 320 209 327T162 335Q139 335 124
325T100 287Z" />
<glyph unicode="&#xa0;" horiz-adv-x="271" />
<glyph unicode="&#xa1;" horiz-adv-x="224" d="M93 277H129L166 -170H57L93 277ZM112 495Q138 495 157 477T176 433Q176 406 157 388T112 369Q87 369 68 387T49 433Q49 459 68 477T112 495Z" />
<glyph unicode="&#xa2;" horiz-adv-x="448" d="M84 -86L56 -75L337 537L364 526L84 -86ZM243 -8Q183 -8 137 20T65 97T39 207Q39 277 70 329T150 410T255 439Q331 439 372 406T414 324Q414 295 398 281T363 267Q342 267 326 280T310 315Q310 330 317 344Q319 349
321 354T324 366Q324 387 303 399T250 412Q220 412 191 393T145 335T127 232Q127 145 171 100T277 54Q342 54 404 107L418 95Q380 41 333 17T243 -8Z" />
<glyph unicode="&#xa3;" horiz-adv-x="626" d="M40 -98Q29 -98 24 -92T19 -74Q19 -51 34 -21T76 38T139 86T218 105Q252 105 280 92T334 58T382 11Q412 -24 434 -40T479 -57Q503 -57 515 -41T528 -2Q528 14 523 24T510 44Q504 54 499 63T493 86Q493 104 503 117T534
131Q559 131 570 112T582 60Q582 28 568 -6T526 -65T456 -89Q401 -89 364 -66T291 -2Q264 28 238 49T182 71Q160 71 143 59T113 29T94 -4T84 -27L79 -28Q102 22 116 61T138 133T154 198Q162 242 170 290T198 404Q216 470 239 521T293 608T367 662T467 681Q509 681
540 668T589 633T607 582Q607 556 592 543T558 529Q536 529 522 542T507 577Q507 586 509 593T514 606Q516 612 518 616T520 627Q520 640 503 646T469 653Q433 653 404 630T352 556T309 426Q291 349 267 274T214 132T155 13T95 -68T40 -98ZM38 249L37 280H417V249H38Z"
/>
<glyph unicode="&#xa4;" horiz-adv-x="566" d="M284 172Q225 172 184 196T119 262T96 355Q96 405 119 446T183 512T284 537Q342 537 383 513T448 447T471 355Q471 304 448 263T384 197T284 172ZM85 121L51 154L153 256L185 222L85 121ZM152 451L51 553L83 587L185
485L152 451ZM284 211Q336 211 370 249T405 355Q405 422 371 460T284 498Q230 498 196 460T161 355Q161 288 195 250T284 211ZM483 121L382 222L414 257L516 155L483 121ZM417 455L381 485L482 587L516 554L417 455Z" />
<glyph unicode="&#xa5;" horiz-adv-x="721" d="M140 324V356H574V324H140ZM140 191V223H574V191H140ZM332 289L106 607Q94 624 81 633T45 646L8 653V673H336V655L284 646Q249 640 239 626T250 581L407 358H389L542 590Q554 609 551 621T523 638L453 654V673H713V654L668
646Q643 642 623 631T586 592L393 302L332 289ZM191 0V19L249 30Q288 38 299 48T310 89V337L415 346V89Q415 58 426 48T476 30L534 19V0H191Z" />
<glyph unicode="&#xa6;" horiz-adv-x="276" d="M113 316V688H163V316H113ZM163 -184H113V186H163V-184Z" />
<glyph unicode="&#xa7;" horiz-adv-x="440" d="M240 87L249 115Q278 115 300 138T323 195Q323 235 306 265T262 321T203 372Q172 398 143 425T94 485T75 563Q75 600 94 631T147 681T226 700Q301 700 338 671T375 604Q375 578 360 567T325 555Q302 555 289 568T275
598Q275 605 277 611T281 624Q283 629 284 634T286 644Q286 657 269 664T224 672Q205 672 188 663T159 636T148 595Q148 555 166 525T212 469T271 419Q302 394 330 368T375 309T393 235Q393 198 377 164T326 109T240 87ZM211 -209Q129 -209 88 -174T47 -94Q47 -70
60 -56T96 -41Q119 -41 132 -55T145 -87Q145 -94 143 -100T139 -113Q138 -118 136 -123T134 -133Q134 -153 158 -167T215 -182Q253 -182 276 -158T300 -94Q300 -56 283 -27T237 27T178 78Q146 105 116 133T66 195T46 274Q46 309 65 339T118 387T197 406L195 379Q163
379 141 357T118 304Q118 264 136 234T182 178T243 125Q275 100 303 73T350 12T369 -64Q369 -100 352 -133T300 -188T211 -209Z" />
<glyph unicode="&#xa8;" horiz-adv-x="542" d="M168 566Q145 566 129 583T112 622Q112 646 128 662T168 679Q192 679 208 663T225 622Q225 600 209 583T168 566ZM374 566Q351 566 334 583T317 622Q317 646 334 662T374 679Q397 679 414 663T431 622Q431 600 414
583T374 566Z" />
<glyph unicode="&#xa9;" horiz-adv-x="755" d="M378 3Q268 3 192 48T75 167T35 332Q35 399 58 461T127 572T235 651T378 680Q456 680 519 655T627 584T696 479T720 353Q720 286 697 223T630 111T522 32T378 3ZM386 152Q326 152 281 178T210 247T184 345Q184 402
211 446T284 514T384 539Q413 539 432 534T466 523Q477 519 486 516T508 513Q513 513 518 514T528 516L529 515Q526 498 527 475T537 417H516Q501 456 469 484T385 513Q330 513 298 468T265 346Q265 270 296 226T385 182Q430 182 463 202T517 276H540Q534 249 529
223T524 172H519Q507 172 492 170T461 164Q442 160 423 156T386 152ZM380 39Q463 39 529 79T635 190T674 349Q674 412 652 466T589 560T495 622T377 645Q314 645 260 620T167 550T105 451T82 335Q82 245 121 179T228 76T380 39Z" />
<glyph unicode="&#xaa;" horiz-adv-x="364" d="M125 372Q101 372 80 387T45 428T32 480Q32 493 34 499T43 507L189 560Q207 567 213 575T219 598V616Q219 648 203 670T152 692Q130 692 116 683T101 659Q101 654 103 651T109 642Q114 636 117 629T121 614Q121 600
108 589T78 577Q63 577 51 587T39 618Q39 645 58 667T106 702T168 715Q225 715 257 684T290 602V453Q290 439 293 429T311 418Q318 418 327 420T344 424V403Q330 393 307 383T269 372Q243 372 234 390T224 434V443L235 431Q212 411 182 392T125 372ZM156 416Q169
416 181 422T208 439Q219 448 219 466V538Q219 545 214 542L110 501Q106 499 105 494T103 476Q103 453 120 435T156 416Z" />
<glyph unicode="&#xab;" horiz-adv-x="370" d="M162 61L22 200V206L163 345L180 333L106 204L180 73L162 61ZM320 61L179 200V206L320 345L338 333L263 204L337 73L320 61Z" />
<glyph unicode="&#xac;" horiz-adv-x="542" d="M427 222V388H45V431H471V222H427Z" />
<glyph unicode="&#xad;" horiz-adv-x="271" d="M18 319H253V251H18V319Z" />
<glyph unicode="&#xae;" horiz-adv-x="509" d="M254 215Q179 215 127 246T47 329T19 442Q19 487 35 530T82 607T156 661T254 681Q327 681 379 651T461 569T490 456Q490 395 462 340T381 250T254 215ZM256 247Q312 247 356 273T426 347T452 454Q452 510 426 554T355
625T254 651Q190 651 147 622T82 546T59 449Q59 398 81 352T148 276T256 247ZM372 339Q349 339 332 354T297 392Q281 412 267 428T225 444H218V379Q218 370 222 367T241 359L255 355V344H134V355L149 359Q162 364 166 366T170 379V544Q170 555 167 557T149 564L134
569V580H232Q285 580 312 563T340 515Q340 490 320 475T269 456V454Q295 454 312 437T344 399Q357 379 370 364T398 348V342Q393 340 386 340T372 339ZM218 463H232Q256 463 272 476T289 513Q289 539 272 552T228 565H218V463Z" />
<glyph unicode="&#xaf;" horiz-adv-x="542" d="M116 596V639H426V596H116Z" />
<glyph unicode="&#xb0;" horiz-adv-x="354" d="M176 402Q138 402 107 421T56 472T37 542Q37 580 56 612T106 663T176 682Q216 682 247 663T298 612T317 542Q317 504 298 472T248 421T176 402ZM175 453Q213 453 239 479T266 543Q266 580 240 607T175 634Q138 634
112 607T85 543Q85 506 111 480T175 453Z" />
<glyph unicode="&#xb1;" horiz-adv-x="542" d="M249 224V365H74V408H249V548H293V408H468V365H293V224H249ZM74 127V171H468V127H74Z" />
<glyph unicode="&#xb2;" horiz-adv-x="314" d="M32 349V356L116 437Q154 474 170 513T187 593Q187 629 170 647T129 666Q108 666 95 660T82 643Q82 635 87 628T93 609Q93 598 85 591T62 583Q51 583 42 593T33 617Q33 647 64 666T144 686Q178 686 205 676T249 647T266
597Q266 565 250 538T207 485T147 429L80 369L94 413H214Q230 413 237 418T250 440L256 456H272L254 349H32Z" />
<glyph unicode="&#xb3;" horiz-adv-x="318" d="M125 345Q85 345 56 362T26 408Q26 425 34 435T57 446Q72 446 79 437T87 418Q87 404 79 399T71 386Q71 377 87 371T126 365Q157 365 178 383T199 447Q199 480 186 500T130 522Q122 520 113 517T95 511L87 526L107
535Q139 548 158 569T177 617Q177 641 165 653T127 666Q107 666 95 660T83 644Q83 637 89 632T96 614Q96 603 87 596T65 588Q54 588 46 598T37 624Q37 651 67 668T140 686Q187 686 217 670T248 621Q248 597 229 578T174 549V547Q224 543 251 517T279 458Q279 423
259 398T205 359T125 345Z" />
<glyph unicode="&#xb4;" horiz-adv-x="542" d="M195 542L177 558L296 714Q308 731 327 731Q343 731 353 720T364 695Q364 682 358 674T344 660L195 542Z" />
<glyph unicode="&#xb5;" horiz-adv-x="541" d="M77 -260L78 359Q78 379 72 386T53 399L14 413V425Q43 426 67 428T115 433T163 441L173 435Q167 422 164 405T160 369V152Q160 105 185 80T255 55Q300 55 325 87T351 162L375 57H353Q328 47 295 30T236 -2Q227 -7
221 -7Q179 -7 149 8L163 -242L77 -260ZM376 -8L367 -4L359 63L351 88V359Q351 379 345 386T326 399L287 413V425Q316 426 340 428T388 433T436 441L446 435Q440 422 437 405T433 369V80Q433 50 453 38T514 27V6Q479 5 446 1T376 -8Z" />
<glyph unicode="&#xb6;" horiz-adv-x="644" d="M264 -229Q201 -229 153 -201T77 -125T49 -23Q49 40 88 82T192 124Q229 124 249 104T269 59Q269 39 256 20T215 0Q194 0 178 14T162 58V61Q162 67 158 69T148 72Q138 72 124 63T100 32T90 -23Q90 -72 113 -110T175
-171T265 -194Q317 -194 356 -171T416 -97T438 35V225H318Q249 225 193 254T104 334T71 451Q71 516 101 566T190 645T339 673H602V656L544 645Q505 638 494 628T483 586V37Q483 -51 456 -110T380 -199T264 -229Z" />
<glyph unicode="&#xb7;" horiz-adv-x="271" d="M134 286Q107 286 86 306T65 354Q65 384 86 404T134 425Q164 425 184 405T205 354Q205 327 185 307T134 286Z" />
<glyph unicode="&#xb8;" horiz-adv-x="542" d="M168 -247V-219Q202 -217 231 -210T278 -188T296 -153Q296 -127 272 -113T196 -97L223 0H257L247 -40Q304 -44 339 -63T375 -121Q375 -154 358 -177T310 -215T243 -237T168 -247Z" />
<glyph unicode="&#xb9;" horiz-adv-x="265" d="M32 349V365L58 370Q79 373 87 376T98 386T100 406V643Q100 656 84 656L38 654V671L170 691V406Q170 393 172 386T183 376T212 370L238 365V349H32Z" />
<glyph unicode="&#xba;" horiz-adv-x="380" d="M189 372Q139 372 101 394T41 454T19 540Q19 591 40 630T100 692T189 715Q241 715 279 693T339 632T361 546Q361 495 340 456T280 395T189 372ZM190 401Q236 401 260 437T285 540Q285 607 260 646T189 685Q144 685
120 649T95 546Q95 479 119 440T190 401Z" />
<glyph unicode="&#xbb;" horiz-adv-x="370" d="M49 61L32 73L107 203L33 333L50 345L190 206V200L49 61ZM207 61L189 73L263 204L189 333L206 345L347 206V200L207 61Z" />
<glyph unicode="&#xbc;" horiz-adv-x="577" d="M416 0V257L440 271L313 109L305 117H493Q504 117 507 120T515 133L523 151H534L520 62H257V79L462 340H480V0H416ZM32 349V365L58 370Q79 373 87 376T98 386T100 406V643Q100 656 84 656L38 654V671L170 691V406Q170
393 172 386T183 376T212 370L238 365V349H32ZM494 680H545L116 0H63L494 680Z" />
<glyph unicode="&#xbd;" horiz-adv-x="632" d="M32 349V365L58 370Q79 373 87 376T98 386T100 406V643Q100 656 84 656L38 654V671L170 691V406Q170 393 172 386T183 376T212 370L238 365V349H32ZM494 680H545L116 0H63L494 680ZM350 0V7L434 88Q472 125 488 164T505
244Q505 280 488 298T447 317Q426 317 413 311T400 294Q400 286 405 279T411 260Q411 249 403 242T380 234Q369 234 360 244T351 268Q351 298 382 317T462 337Q496 337 523 327T567 298T584 248Q584 216 568 189T525 136T465 80L398 20L412 64H532Q548 64 555 69T568
91L574 107H590L572 0H350Z" />
<glyph unicode="&#xbe;" horiz-adv-x="596" d="M423 0V257L447 271L320 109L312 117H500Q511 117 514 120T522 133L530 151H541L527 62H264V79L469 340H487V0H423ZM506 680H557L128 0H75L506 680ZM125 345Q85 345 56 362T26 408Q26 425 34 435T57 446Q72 446 79
437T87 418Q87 404 79 399T71 386Q71 377 87 371T126 365Q157 365 178 383T199 447Q199 480 186 500T130 522Q122 520 113 517T95 511L87 526L107 535Q139 548 158 569T177 617Q177 641 165 653T127 666Q107 666 95 660T83 644Q83 637 89 632T96 614Q96 603 87
596T65 588Q54 588 46 598T37 624Q37 651 67 668T140 686Q187 686 217 670T248 621Q248 597 229 578T174 549V547Q224 543 251 517T279 458Q279 423 259 398T205 359T125 345Z" />
<glyph unicode="&#xbf;" horiz-adv-x="370" d="M282 290Q282 227 272 192T235 140T161 115Q125 109 109 101T86 81T80 46Q80 16 93 3T137 -15L307 -43V-186H289L283 -158Q280 -140 271 -132T246 -121L150 -104Q92 -94 67 -60T42 44Q42 114 67 157T164 210Q201
215 219 225T244 251T250 290H282ZM266 495Q291 495 309 477T328 433Q328 407 310 388T266 369Q240 369 221 388T202 433Q202 459 221 477T266 495Z" />
<glyph unicode="&#xc0;" horiz-adv-x="765" d="M5 0V19L55 29Q86 34 102 46T127 81L330 573L306 635Q331 636 347 647T371 673T380 698H390L640 94Q654 59 671 47T717 28L760 19V0H425V19L478 29Q507 34 518 41T530 60Q530 67 527 76T519 98L338 555H360L163 80Q160
74 159 69T157 59Q157 48 166 42T192 32L263 19V0H5ZM224 228L219 260H509V228H224ZM471 735L290 793Q280 795 272 800T259 818Q254 832 259 846T280 865Q299 871 316 860L482 756L471 735Z" />
<glyph unicode="&#xc1;" horiz-adv-x="765" d="M5 0V19L55 29Q86 34 102 46T127 81L330 573L306 635Q331 636 347 647T371 673T380 698H390L640 94Q654 59 671 47T717 28L760 19V0H425V19L478 29Q507 34 518 41T530 60Q530 67 527 76T519 98L338 555H360L163 80Q160
74 159 69T157 59Q157 48 166 42T192 32L263 19V0H5ZM224 228L219 260H509V228H224ZM295 735L284 756L450 860Q467 871 486 865Q501 860 506 846T507 818Q503 806 494 801T476 793L295 735Z" />
<glyph unicode="&#xc2;" horiz-adv-x="765" d="M5 0V19L55 29Q86 34 102 46T127 81L330 573L306 635Q331 636 347 647T371 673T380 698H390L640 94Q654 59 671 47T717 28L760 19V0H425V19L478 29Q507 34 518 41T530 60Q530 67 527 76T519 98L338 555H360L163 80Q160
74 159 69T157 59Q157 48 166 42T192 32L263 19V0H5ZM224 228L219 260H509V228H224ZM365 865H385L517 736L506 720L374 785L244 720L233 736L365 865Z" />
<glyph unicode="&#xc3;" horiz-adv-x="765" d="M5 0V19L55 29Q86 34 102 46T127 81L330 573L306 635Q331 636 347 647T371 673T380 698H390L640 94Q654 59 671 47T717 28L760 19V0H425V19L478 29Q507 34 518 41T530 60Q530 67 527 76T519 98L338 555H360L163 80Q160
74 159 69T157 59Q157 48 166 42T192 32L263 19V0H5ZM224 228L219 260H509V228H224ZM75 718V732H85Q120 732 137 736T163 748T179 771Q195 802 221 827T285 869T376 885Q428 885 466 869T530 828T572 772Q579 757 587 748T613 736T666 732H676V718H553Q552 748
530 773T469 815T376 831Q322 831 283 815T221 774T198 718H75Z" />
<glyph unicode="&#xc4;" horiz-adv-x="765" d="M5 0V19L55 29Q86 34 102 46T127 81L330 573L306 635Q331 636 347 647T371 673T380 698H390L640 94Q654 59 671 47T717 28L760 19V0H425V19L478 29Q507 34 518 41T530 60Q530 67 527 76T519 98L338 555H360L163 80Q160
74 159 69T157 59Q157 48 166 42T192 32L263 19V0H5ZM224 228L219 260H509V228H224ZM272 742Q249 742 233 759T216 798Q216 822 232 838T272 855Q296 855 312 839T329 798Q329 776 313 759T272 742ZM478 742Q455 742 438 759T421 798Q421 822 438 838T478 855Q501
855 518 839T535 798Q535 776 518 759T478 742Z" />
<glyph unicode="&#xc5;" horiz-adv-x="765" d="M5 0V19L55 29Q86 34 102 46T127 81L330 573L306 635Q331 636 347 647T371 673T380 698H390L640 94Q654 59 671 47T717 28L760 19V0H425V19L478 29Q507 34 518 41T530 60Q530 67 527 76T519 98L338 555H360L163 80Q160
74 159 69T157 59Q157 48 166 42T192 32L263 19V0H5ZM224 228L219 260H509V228H224ZM469 779Q469 741 442 713T375 685Q336 685 309 713T281 779Q281 818 309 845T375 873Q414 873 441 846T469 779ZM432 779Q432 803 416 819T376 836Q353 836 336 820T318 779Q318
756 335 740T376 723Q400 723 416 739T432 779Z" />
<glyph unicode="&#xc6;" horiz-adv-x="1010" d="M5 0V19L46 27Q77 33 96 46T130 80L500 599L503 551L170 80Q157 62 162 50T195 32L263 19V0H5ZM268 229L274 261H515V229H268ZM367 0V19L425 30Q464 38 475 48T486 89V584Q486 616 475 626T425 643L367 654V673H937Q934
659 933 645T931 617Q931 582 937 551T947 496H926Q911 539 890 573T835 626T753 646H591V370H741Q793 370 811 388T837 447L846 494H865V216H846L837 264Q830 304 812 322T742 340H591V99Q591 73 596 57T618 34T667 27H753Q793 27 826 41T883 79T922 126L953 180H973Q961
135 955 88T948 0H367Z" />
<glyph unicode="&#xc7;" horiz-adv-x="736" d="M410 -11Q329 -11 262 15T146 88T71 199T44 335Q44 411 72 475T151 585T267 656T406 682Q462 682 497 674T557 655Q578 648 595 642T632 636Q643 636 651 638T669 641L672 639Q666 609 668 567T684 463H662Q644 510
609 553T524 625T408 654Q340 654 284 614T193 503T158 336Q158 244 190 172T280 58T410 16Q439 16 474 25T546 55T614 115T667 211H690Q679 163 671 116T663 26H654Q631 26 605 21T548 9Q515 2 480 -4T410 -11ZM313 -244V-216Q347 -214 376 -207T423 -185T441
-150Q441 -124 417 -110T341 -94L368 3H402L392 -37Q449 -41 484 -60T520 -118Q520 -151 503 -174T455 -212T388 -234T313 -244Z" />
<glyph unicode="&#xc8;" horiz-adv-x="681" d="M37 0V19L95 30Q134 38 145 48T156 89V584Q156 616 145 626T95 643L37 654V673H607Q604 659 603 645T602 617Q602 582 608 551T617 496H597Q581 539 560 573T506 626T423 646H262V370H411Q463 370 481 388T508 447L516
494H536V216H516L507 264Q500 304 482 322T412 340H262V99Q262 73 267 57T288 34T337 27H424Q463 27 496 41T553 79T593 126L624 180H644Q631 135 625 88T618 0H37ZM457 735L276 793Q266 795 258 800T245 818Q240 832 245 846T266 865Q285 871 302 860L468 756L457
735Z" />
<glyph unicode="&#xc9;" horiz-adv-x="681" d="M37 0V19L95 30Q134 38 145 48T156 89V584Q156 616 145 626T95 643L37 654V673H607Q604 659 603 645T602 617Q602 582 608 551T617 496H597Q581 539 560 573T506 626T423 646H262V370H411Q463 370 481 388T508 447L516
494H536V216H516L507 264Q500 304 482 322T412 340H262V99Q262 73 267 57T288 34T337 27H424Q463 27 496 41T553 79T593 126L624 180H644Q631 135 625 88T618 0H37ZM281 735L270 756L436 860Q453 871 472 865Q487 860 492 846T493 818Q489 806 480 801T462 793L281
735Z" />
<glyph unicode="&#xca;" horiz-adv-x="681" d="M37 0V19L95 30Q134 38 145 48T156 89V584Q156 616 145 626T95 643L37 654V673H607Q604 659 603 645T602 617Q602 582 608 551T617 496H597Q581 539 560 573T506 626T423 646H262V370H411Q463 370 481 388T508 447L516
494H536V216H516L507 264Q500 304 482 322T412 340H262V99Q262 73 267 57T288 34T337 27H424Q463 27 496 41T553 79T593 126L624 180H644Q631 135 625 88T618 0H37ZM351 865H371L503 736L492 720L360 785L230 720L219 736L351 865Z" />
<glyph unicode="&#xcb;" horiz-adv-x="681" d="M37 0V19L95 30Q134 38 145 48T156 89V584Q156 616 145 626T95 643L37 654V673H607Q604 659 603 645T602 617Q602 582 608 551T617 496H597Q581 539 560 573T506 626T423 646H262V370H411Q463 370 481 388T508 447L516
494H536V216H516L507 264Q500 304 482 322T412 340H262V99Q262 73 267 57T288 34T337 27H424Q463 27 496 41T553 79T593 126L624 180H644Q631 135 625 88T618 0H37ZM258 742Q235 742 219 759T202 798Q202 822 218 838T258 855Q282 855 298 839T315 798Q315 776
299 759T258 742ZM464 742Q441 742 424 759T407 798Q407 822 424 838T464 855Q487 855 504 839T521 798Q521 776 504 759T464 742Z" />
<glyph unicode="&#xcc;" horiz-adv-x="417" d="M37 0V19L95 30Q134 38 145 48T156 89V584Q156 616 145 626T95 643L37 654V673H380V654L322 643Q283 636 272 626T261 584V89Q261 58 272 48T322 30L380 19V0H37ZM561 735L380 793Q370 795 362 800T349 818Q344 832
349 846T370 865Q389 871 406 860L572 756L561 735Z" />
<glyph unicode="&#xcd;" horiz-adv-x="417" d="M37 0V19L95 30Q134 38 145 48T156 89V584Q156 616 145 626T95 643L37 654V673H380V654L322 643Q283 636 272 626T261 584V89Q261 58 272 48T322 30L380 19V0H37ZM385 735L374 756L540 860Q557 871 576 865Q591 860
596 846T597 818Q593 806 584 801T566 793L385 735Z" />
<glyph unicode="&#xce;" horiz-adv-x="417" d="M37 0V19L95 30Q134 38 145 48T156 89V584Q156 616 145 626T95 643L37 654V673H380V654L322 643Q283 636 272 626T261 584V89Q261 58 272 48T322 30L380 19V0H37ZM455 865H475L607 736L596 720L464 785L334 720L323
736L455 865Z" />
<glyph unicode="&#xcf;" horiz-adv-x="417" d="M37 0V19L95 30Q134 38 145 48T156 89V584Q156 616 145 626T95 643L37 654V673H380V654L322 643Q283 636 272 626T261 584V89Q261 58 272 48T322 30L380 19V0H37ZM106 742Q83 742 67 759T50 798Q50 822 66 838T106
855Q130 855 146 839T163 798Q163 776 147 759T106 742ZM312 742Q289 742 272 759T255 798Q255 822 272 838T312 855Q335 855 352 839T369 798Q369 776 352 759T312 742Z" />
<glyph unicode="&#xd0;" horiz-adv-x="799" d="M37 322V363H384V322H37ZM37 0V19L95 30Q134 38 145 48T156 89V584Q156 616 145 626T95 643L37 654V673H366Q456 673 527 646T650 572T728 465T756 337Q756 260 727 198T645 91T521 24T365 0H37ZM359 27Q439 27 502
63T603 168T640 337Q640 436 605 505T504 610T345 647H261V82Q261 55 282 41T359 27Z" />
<glyph unicode="&#xd1;" horiz-adv-x="849" d="M693 -16L190 553V94Q190 65 202 52T251 31L316 19V0H38V19L98 31Q135 38 147 50T159 92V579Q159 601 155 613T136 632T87 645L39 655V673H222L675 170L674 579Q674 609 662 622T613 642L549 654V673H827V654L766
642Q730 636 718 624T705 581V-16H693ZM135 718V732H145Q180 732 197 736T223 748T239 771Q255 802 281 827T345 869T436 885Q488 885 526 869T590 828T632 772Q639 757 647 748T673 736T726 732H736V718H613Q612 748 590 773T529 815T436 831Q382 831 343 815T281
774T258 718H135Z" />
<glyph unicode="&#xd2;" horiz-adv-x="802" d="M400 -12Q323 -12 258 14T145 87T71 196T44 328Q44 404 70 468T145 581T258 656T400 683Q478 683 543 657T657 583T731 473T758 341Q758 265 732 201T657 89T544 15T400 -12ZM400 18Q472 18 526 59T611 173T642 340Q642
428 612 498T527 610T400 652Q330 652 276 611T190 496T159 328Q159 263 177 207T227 108T303 42T400 18ZM496 735L315 793Q305 795 297 800T284 818Q279 832 284 846T305 865Q324 871 341 860L507 756L496 735Z" />
<glyph unicode="&#xd3;" horiz-adv-x="802" d="M400 -12Q323 -12 258 14T145 87T71 196T44 328Q44 404 70 468T145 581T258 656T400 683Q478 683 543 657T657 583T731 473T758 341Q758 265 732 201T657 89T544 15T400 -12ZM400 18Q472 18 526 59T611 173T642 340Q642
428 612 498T527 610T400 652Q330 652 276 611T190 496T159 328Q159 263 177 207T227 108T303 42T400 18ZM320 735L309 756L475 860Q492 871 511 865Q526 860 531 846T532 818Q528 806 519 801T501 793L320 735Z" />
<glyph unicode="&#xd4;" horiz-adv-x="802" d="M400 -12Q323 -12 258 14T145 87T71 196T44 328Q44 404 70 468T145 581T258 656T400 683Q478 683 543 657T657 583T731 473T758 341Q758 265 732 201T657 89T544 15T400 -12ZM400 18Q472 18 526 59T611 173T642 340Q642
428 612 498T527 610T400 652Q330 652 276 611T190 496T159 328Q159 263 177 207T227 108T303 42T400 18ZM390 865H410L542 736L531 720L399 785L269 720L258 736L390 865Z" />
<glyph unicode="&#xd5;" horiz-adv-x="802" d="M400 -12Q323 -12 258 14T145 87T71 196T44 328Q44 404 70 468T145 581T258 656T400 683Q478 683 543 657T657 583T731 473T758 341Q758 265 732 201T657 89T544 15T400 -12ZM400 18Q472 18 526 59T611 173T642 340Q642
428 612 498T527 610T400 652Q330 652 276 611T190 496T159 328Q159 263 177 207T227 108T303 42T400 18ZM100 718V732H110Q145 732 162 736T188 748T204 771Q220 802 246 827T310 869T401 885Q453 885 491 869T555 828T597 772Q604 757 612 748T638 736T691 732H701V718H578Q577
748 555 773T494 815T401 831Q347 831 308 815T246 774T223 718H100Z" />
<glyph unicode="&#xd6;" horiz-adv-x="802" d="M400 -12Q323 -12 258 14T145 87T71 196T44 328Q44 404 70 468T145 581T258 656T400 683Q478 683 543 657T657 583T731 473T758 341Q758 265 732 201T657 89T544 15T400 -12ZM400 18Q472 18 526 59T611 173T642 340Q642
428 612 498T527 610T400 652Q330 652 276 611T190 496T159 328Q159 263 177 207T227 108T303 42T400 18ZM297 742Q274 742 258 759T241 798Q241 822 257 838T297 855Q321 855 337 839T354 798Q354 776 338 759T297 742ZM503 742Q480 742 463 759T446 798Q446 822
463 838T503 855Q526 855 543 839T560 798Q560 776 543 759T503 742Z" />
<glyph unicode="&#xd7;" horiz-adv-x="542" d="M139 170L108 202L240 334L109 465L140 495L271 365L403 496L434 465L302 334L432 202L401 171L271 303L139 170Z" />
<glyph unicode="&#xd8;" horiz-adv-x="802" d="M73 -15L43 16L727 682L758 651L73 -15ZM400 -12Q323 -12 258 14T145 87T71 196T44 328Q44 404 70 468T145 581T258 656T400 683Q478 683 543 657T657 583T731 473T758 341Q758 265 732 201T657 89T544 15T400 -12ZM400
18Q472 18 526 59T611 173T642 340Q642 428 612 498T527 610T400 652Q330 652 276 611T190 496T159 328Q159 263 177 207T227 108T303 42T400 18Z" />
<glyph unicode="&#xd9;" horiz-adv-x="784" d="M389 -12Q339 -12 294 4T214 52T161 127T141 226V584Q141 616 130 626T80 643L22 654V673H365V654L307 643Q268 636 257 626T246 584V228Q246 140 294 92T427 43Q484 43 524 66T586 131T608 230V579Q608 609 596
622T547 642L483 654V673H760V654L700 642Q664 636 652 624T639 581V110Q621 110 607 97T574 64Q558 47 535 30T477 0T389 -12ZM519 735L338 793Q328 795 320 800T307 818Q302 832 307 846T328 865Q347 871 364 860L530 756L519 735Z" />
<glyph unicode="&#xda;" horiz-adv-x="784" d="M389 -12Q339 -12 294 4T214 52T161 127T141 226V584Q141 616 130 626T80 643L22 654V673H365V654L307 643Q268 636 257 626T246 584V228Q246 140 294 92T427 43Q484 43 524 66T586 131T608 230V579Q608 609 596
622T547 642L483 654V673H760V654L700 642Q664 636 652 624T639 581V110Q621 110 607 97T574 64Q558 47 535 30T477 0T389 -12ZM343 735L332 756L498 860Q515 871 534 865Q549 860 554 846T555 818Q551 806 542 801T524 793L343 735Z" />
<glyph unicode="&#xdb;" horiz-adv-x="784" d="M389 -12Q339 -12 294 4T214 52T161 127T141 226V584Q141 616 130 626T80 643L22 654V673H365V654L307 643Q268 636 257 626T246 584V228Q246 140 294 92T427 43Q484 43 524 66T586 131T608 230V579Q608 609 596
622T547 642L483 654V673H760V654L700 642Q664 636 652 624T639 581V110Q621 110 607 97T574 64Q558 47 535 30T477 0T389 -12ZM413 865H433L565 736L554 720L422 785L292 720L281 736L413 865Z" />
<glyph unicode="&#xdc;" horiz-adv-x="784" d="M389 -12Q339 -12 294 4T214 52T161 127T141 226V584Q141 616 130 626T80 643L22 654V673H365V654L307 643Q268 636 257 626T246 584V228Q246 140 294 92T427 43Q484 43 524 66T586 131T608 230V579Q608 609 596
622T547 642L483 654V673H760V654L700 642Q664 636 652 624T639 581V110Q621 110 607 97T574 64Q558 47 535 30T477 0T389 -12ZM320 742Q297 742 281 759T264 798Q264 822 280 838T320 855Q344 855 360 839T377 798Q377 776 361 759T320 742ZM526 742Q503 742 486
759T469 798Q469 822 486 838T526 855Q549 855 566 839T583 798Q583 776 566 759T526 742Z" />
<glyph unicode="&#xdd;" horiz-adv-x="721" d="M332 289L106 607Q94 624 81 633T45 646L8 653V673H336V655L284 646Q249 640 239 626T250 581L407 358H389L542 590Q554 609 551 621T523 638L453 654V673H713V654L668 646Q643 642 623 631T586 592L393 302L332
289ZM191 0V19L249 30Q288 38 299 48T310 89V337L415 346V89Q415 58 426 48T476 30L534 19V0H191ZM310 735L299 756L465 860Q482 871 501 865Q516 860 521 846T522 818Q518 806 509 801T491 793L310 735Z" />
<glyph unicode="&#xde;" horiz-adv-x="656" d="M37 0V19L95 30Q134 38 145 48T156 89V584Q156 616 145 626T95 643L37 654V673H380V654L322 643Q283 636 272 626T261 584V544H353Q438 544 500 520T596 453T630 352Q630 306 611 272T559 214T489 178T412 164T343
171L344 178Q390 181 429 198T492 252T516 351Q516 441 467 479T332 518H261V89Q261 58 272 48T322 30L383 19V0H37Z" />
<glyph unicode="&#xdf;" horiz-adv-x="587" d="M413 -8Q368 -8 329 6T269 33Q271 62 271 93T265 155H295Q301 116 317 85T360 35T425 17Q454 17 475 37T496 88Q496 117 481 137T443 172T392 201Q364 217 338 235T294 279T277 345Q277 381 296 404T341 448Q365
470 386 498T407 572Q407 627 382 656T299 685Q254 685 228 661T192 593T181 490V0H34V16L73 27Q88 31 93 39T99 61V401H33V431H99V495Q99 562 123 610T194 684T307 711Q368 711 408 692T468 644T488 583Q488 555 477 535T448 500T412 471Q387 452 367 431T347
376Q347 348 361 330T399 297T447 270Q475 256 502 238T548 193T566 123Q566 91 549 61T499 11T413 -8Z" />
<glyph unicode="&#xe0;" horiz-adv-x="472" d="M177 -7Q144 -7 116 12T71 63T54 129Q54 146 57 153T68 163L264 235Q286 243 294 253T302 283V306Q302 352 281 382T214 413Q185 413 166 400T147 366Q147 360 150 354T158 342Q165 334 169 325T173 304Q173 284
159 272T122 260Q99 260 86 273T72 313Q72 348 95 376T157 422T234 439Q281 439 314 422T366 374T385 302V90Q385 70 389 56T413 41Q433 41 458 51V33Q439 21 410 7T359 -7Q338 -7 327 3T311 32T305 73V85L321 69Q300 52 276 35T226 5T177 -7ZM213 45Q231 45 249
53T287 76Q303 88 303 111V211Q303 214 301 216T295 216L150 162Q144 160 142 153T139 130Q139 109 150 90T178 58T213 45ZM554 541L406 661Q399 667 393 675T387 695Q387 710 398 721T424 731Q443 731 455 714L572 556L554 541Z" />
<glyph unicode="&#xe1;" horiz-adv-x="472" d="M177 -7Q144 -7 116 12T71 63T54 129Q54 146 57 153T68 163L264 235Q286 243 294 253T302 283V306Q302 352 281 382T214 413Q185 413 166 400T147 366Q147 360 150 354T158 342Q165 334 169 325T173 304Q173 284
159 272T122 260Q99 260 86 273T72 313Q72 348 95 376T157 422T234 439Q281 439 314 422T366 374T385 302V90Q385 70 389 56T413 41Q433 41 458 51V33Q439 21 410 7T359 -7Q338 -7 327 3T311 32T305 73V85L321 69Q300 52 276 35T226 5T177 -7ZM213 45Q231 45 249
53T287 76Q303 88 303 111V211Q303 214 301 216T295 216L150 162Q144 160 142 153T139 130Q139 109 150 90T178 58T213 45ZM431 542L413 558L532 714Q544 731 563 731Q579 731 589 720T600 695Q600 682 594 674T580 660L431 542Z" />
<glyph unicode="&#xe2;" horiz-adv-x="472" d="M177 -7Q144 -7 116 12T71 63T54 129Q54 146 57 153T68 163L264 235Q286 243 294 253T302 283V306Q302 352 281 382T214 413Q185 413 166 400T147 366Q147 360 150 354T158 342Q165 334 169 325T173 304Q173 284
159 272T122 260Q99 260 86 273T72 313Q72 348 95 376T157 422T234 439Q281 439 314 422T366 374T385 302V90Q385 70 389 56T413 41Q433 41 458 51V33Q439 21 410 7T359 -7Q338 -7 327 3T311 32T305 73V85L321 69Q300 52 276 35T226 5T177 -7ZM213 45Q231 45 249
53T287 76Q303 88 303 111V211Q303 214 301 216T295 216L150 162Q144 160 142 153T139 130Q139 109 150 90T178 58T213 45ZM503 711L637 558L622 544L494 627L364 545L349 559L483 711H503Z" />
<glyph unicode="&#xe3;" horiz-adv-x="472" d="M177 -7Q144 -7 116 12T71 63T54 129Q54 146 57 153T68 163L264 235Q286 243 294 253T302 283V306Q302 352 281 382T214 413Q185 413 166 400T147 366Q147 360 150 354T158 342Q165 334 169 325T173 304Q173 284
159 272T122 260Q99 260 86 273T72 313Q72 348 95 376T157 422T234 439Q281 439 314 422T366 374T385 302V90Q385 70 389 56T413 41Q433 41 458 51V33Q439 21 410 7T359 -7Q338 -7 327 3T311 32T305 73V85L321 69Q300 52 276 35T226 5T177 -7ZM213 45Q231 45 249
53T287 76Q303 88 303 111V211Q303 214 301 216T295 216L150 162Q144 160 142 153T139 130Q139 109 150 90T178 58T213 45ZM359 516L345 527L410 623L588 637Q597 638 601 640T612 647L645 677L660 666L597 571L420 557Q411 556 406 555T393 546L359 516Z" />
<glyph unicode="&#xe4;" horiz-adv-x="472" d="M177 -7Q144 -7 116 12T71 63T54 129Q54 146 57 153T68 163L264 235Q286 243 294 253T302 283V306Q302 352 281 382T214 413Q185 413 166 400T147 366Q147 360 150 354T158 342Q165 334 169 325T173 304Q173 284
159 272T122 260Q99 260 86 273T72 313Q72 348 95 376T157 422T234 439Q281 439 314 422T366 374T385 302V90Q385 70 389 56T413 41Q433 41 458 51V33Q439 21 410 7T359 -7Q338 -7 327 3T311 32T305 73V85L321 69Q300 52 276 35T226 5T177 -7ZM213 45Q231 45 249
53T287 76Q303 88 303 111V211Q303 214 301 216T295 216L150 162Q144 160 142 153T139 130Q139 109 150 90T178 58T213 45ZM390 566Q367 566 351 583T334 622Q334 646 350 662T390 679Q414 679 430 663T447 622Q447 600 431 583T390 566ZM596 566Q573 566 556 583T539
622Q539 646 556 662T596 679Q619 679 636 663T653 622Q653 600 636 583T596 566Z" />
<glyph unicode="&#xe5;" horiz-adv-x="472" d="M177 -7Q144 -7 116 12T71 63T54 129Q54 146 57 153T68 163L264 235Q286 243 294 253T302 283V306Q302 352 281 382T214 413Q185 413 166 400T147 366Q147 360 150 354T158 342Q165 334 169 325T173 304Q173 284
159 272T122 260Q99 260 86 273T72 313Q72 348 95 376T157 422T234 439Q281 439 314 422T366 374T385 302V90Q385 70 389 56T413 41Q433 41 458 51V33Q439 21 410 7T359 -7Q338 -7 327 3T311 32T305 73V85L321 69Q300 52 276 35T226 5T177 -7ZM213 45Q231 45 249
53T287 76Q303 88 303 111V211Q303 214 301 216T295 216L150 162Q144 160 142 153T139 130Q139 109 150 90T178 58T213 45ZM493 505Q462 505 436 520T394 562T378 620Q378 652 393 678T435 719T493 735Q525 735 551 720T592 678T608 620Q608 589 593 563T551 521T493
505ZM494 549Q523 549 544 570T565 620Q565 649 544 670T494 692Q465 692 443 671T421 620Q421 591 443 570T494 549Z" />
<glyph unicode="&#xe6;" horiz-adv-x="715" d="M177 -7Q144 -7 116 12T71 63T54 129Q54 146 57 153T68 163L264 235Q286 243 294 253T302 283V306Q302 352 281 382T214 413Q185 413 166 400T147 366Q147 360 150 354T158 342Q165 334 169 325T173 304Q173 284
159 272T122 260Q99 260 86 273T72 313Q72 348 95 376T157 422T234 439Q281 439 314 422T366 374T385 302V103L354 84Q325 63 294 42T232 7T177 -7ZM213 45Q231 45 249 53T287 76Q303 88 303 111V211Q303 214 301 216T295 216L150 162Q144 160 142 153T139 130Q139
109 150 90T178 58T213 45ZM508 -8Q448 -8 402 21T329 100T303 210Q303 278 331 329T407 410T516 439Q564 439 600 416T656 354T677 264Q677 257 673 252T659 246H359V272L568 279Q586 279 586 298Q586 347 566 379T506 412Q454 412 423 362T391 232Q391 175 411
135T466 75T542 54Q604 54 666 107L680 95Q642 41 597 17T508 -8Z" />
<glyph unicode="&#xe7;" horiz-adv-x="448" d="M243 -8Q183 -8 137 20T65 97T39 207Q39 277 70 329T150 410T255 439Q331 439 372 406T414 324Q414 295 398 281T363 267Q342 267 326 280T310 315Q310 330 317 344Q319 349 321 354T324 366Q324 387 303 399T250
412Q220 412 191 393T145 335T127 232Q127 145 171 100T277 54Q342 54 404 107L418 95Q380 41 333 17T243 -8ZM388 -244V-216Q422 -214 451 -207T498 -185T516 -150Q516 -124 492 -110T416 -94L443 3H477L467 -37Q524 -41 559 -60T595 -118Q595 -151 578 -174T530
-212T463 -234T388 -244Z" />
<glyph unicode="&#xe8;" horiz-adv-x="452" d="M244 -8Q185 -8 139 21T66 100T39 210Q39 278 67 329T143 410T252 439Q301 439 337 416T393 354T413 264Q413 257 409 252T395 246H96V272L304 279Q322 279 322 298Q322 347 302 379T243 412Q190 412 159 362T127
232Q127 174 147 135T202 75T278 54Q340 54 403 107L416 95Q378 41 333 17T244 -8ZM571 541L423 661Q416 667 410 675T404 695Q404 710 415 721T441 731Q460 731 472 714L589 556L571 541Z" />
<glyph unicode="&#xe9;" horiz-adv-x="452" d="M244 -8Q185 -8 139 21T66 100T39 210Q39 278 67 329T143 410T252 439Q301 439 337 416T393 354T413 264Q413 257 409 252T395 246H96V272L304 279Q322 279 322 298Q322 347 302 379T243 412Q190 412 159 362T127
232Q127 174 147 135T202 75T278 54Q340 54 403 107L416 95Q378 41 333 17T244 -8ZM449 542L431 558L550 714Q562 731 581 731Q597 731 607 720T618 695Q618 682 612 674T598 660L449 542Z" />
<glyph unicode="&#xea;" horiz-adv-x="452" d="M244 -8Q185 -8 139 21T66 100T39 210Q39 278 67 329T143 410T252 439Q301 439 337 416T393 354T413 264Q413 257 409 252T395 246H96V272L304 279Q322 279 322 298Q322 347 302 379T243 412Q190 412 159 362T127
232Q127 174 147 135T202 75T278 54Q340 54 403 107L416 95Q378 41 333 17T244 -8ZM521 711L655 558L640 544L512 627L382 545L367 559L501 711H521Z" />
<glyph unicode="&#xeb;" horiz-adv-x="452" d="M244 -8Q185 -8 139 21T66 100T39 210Q39 278 67 329T143 410T252 439Q301 439 337 416T393 354T413 264Q413 257 409 252T395 246H96V272L304 279Q322 279 322 298Q322 347 302 379T243 412Q190 412 159 362T127
232Q127 174 147 135T202 75T278 54Q340 54 403 107L416 95Q378 41 333 17T244 -8ZM408 566Q385 566 369 583T352 622Q352 646 368 662T408 679Q432 679 448 663T465 622Q465 600 449 583T408 566ZM614 566Q591 566 574 583T557 622Q557 646 574 662T614 679Q637
679 654 663T671 622Q671 600 654 583T614 566Z" />
<glyph unicode="&#xec;" horiz-adv-x="267" d="M34 0V16L73 27Q99 35 99 61V339Q99 359 94 367T74 378L34 389V401Q76 409 112 418T184 444L193 437Q186 418 184 395T181 339V59Q181 46 188 38T206 27L245 16V0H34ZM199 541L51 661Q44 667 38 675T32 695Q32 710
43 721T69 731Q88 731 100 714L217 556L199 541Z" />
<glyph unicode="&#xed;" horiz-adv-x="267" d="M34 0V16L73 27Q99 35 99 61V339Q99 359 94 367T74 378L34 389V401Q76 409 112 418T184 444L193 437Q186 418 184 395T181 339V59Q181 46 188 38T206 27L245 16V0H34ZM332 542L314 558L433 714Q445 731 464 731Q480
731 490 720T501 695Q501 682 495 674T481 660L332 542Z" />
<glyph unicode="&#xee;" horiz-adv-x="267" d="M34 0V16L73 27Q99 35 99 61V339Q99 359 94 367T74 378L34 389V401Q76 409 112 418T184 444L193 437Q186 418 184 395T181 339V59Q181 46 188 38T206 27L245 16V0H34ZM148 711L282 558L267 544L139 627L9 545L-6
559L128 711H148Z" />
<glyph unicode="&#xef;" horiz-adv-x="267" d="M34 0V16L73 27Q99 35 99 61V339Q99 359 94 367T74 378L34 389V401Q76 409 112 418T184 444L193 437Q186 418 184 395T181 339V59Q181 46 188 38T206 27L245 16V0H34ZM35 566Q12 566 -4 583T-21 622Q-21 646 -5 662T35
679Q59 679 75 663T92 622Q92 600 76 583T35 566ZM241 566Q218 566 201 583T184 622Q184 646 201 662T241 679Q264 679 281 663T298 622Q298 600 281 583T241 566Z" />
<glyph unicode="&#xf0;" horiz-adv-x="527" d="M247 470L233 500L508 622L522 592L247 470ZM198 -11Q155 -11 117 7T56 64T32 161Q32 245 59 300T131 381T229 408Q294 408 332 370T371 270V270Q376 299 378 335T381 403Q381 522 360 587T290 652Q274 652 265 637T248
604Q241 587 231 573T204 558Q185 558 172 568T159 599Q159 633 194 657T288 682Q382 682 423 611T465 412Q465 289 434 194T344 44T198 -11ZM218 13Q253 13 278 35T318 93T341 165T348 232Q348 265 339 298T308 354T246 377Q190 377 158 326T126 161Q126 81 152
47T218 13Z" />
<glyph unicode="&#xf1;" horiz-adv-x="544" d="M318 0V16L357 27Q372 31 377 39T383 61V281Q383 328 358 352T285 377Q238 377 210 347T181 273L157 374H179Q205 385 238 402T298 434Q308 439 316 439Q387 439 426 404T465 300V59Q465 45 472 38T492 27L531 16V0H318ZM34
0V16L73 27Q87 31 93 39T99 61V338Q99 358 94 366T74 378L34 388V401Q62 406 86 411T132 424T178 443L187 436Q181 424 178 406T174 371V361L181 344V59Q181 45 187 38T207 27L246 16V0H34ZM140 516L126 527L191 623L369 637Q378 638 382 640T393 647L426 677L441
666L378 571L201 557Q192 556 187 555T174 546L140 516Z" />
<glyph unicode="&#xf2;" horiz-adv-x="506" d="M253 -8Q189 -8 141 21T66 100T39 212Q39 279 65 330T140 410T253 439Q317 439 365 410T440 332T467 220Q467 153 441 102T366 22T253 -8ZM254 18Q312 18 343 67T375 209Q375 305 344 359T252 413Q194 413 163 365T131
223Q131 127 162 73T254 18ZM569 541L421 661Q414 667 408 675T402 695Q402 710 413 721T439 731Q458 731 470 714L587 556L569 541Z" />
<glyph unicode="&#xf3;" horiz-adv-x="506" d="M253 -8Q189 -8 141 21T66 100T39 212Q39 279 65 330T140 410T253 439Q317 439 365 410T440 332T467 220Q467 153 441 102T366 22T253 -8ZM254 18Q312 18 343 67T375 209Q375 305 344 359T252 413Q194 413 163 365T131
223Q131 127 162 73T254 18ZM447 542L429 558L548 714Q560 731 579 731Q595 731 605 720T616 695Q616 682 610 674T596 660L447 542Z" />
<glyph unicode="&#xf4;" horiz-adv-x="506" d="M253 -8Q189 -8 141 21T66 100T39 212Q39 279 65 330T140 410T253 439Q317 439 365 410T440 332T467 220Q467 153 441 102T366 22T253 -8ZM254 18Q312 18 343 67T375 209Q375 305 344 359T252 413Q194 413 163 365T131
223Q131 127 162 73T254 18ZM519 711L653 558L638 544L510 627L380 545L365 559L499 711H519Z" />
<glyph unicode="&#xf5;" horiz-adv-x="506" d="M253 -8Q189 -8 141 21T66 100T39 212Q39 279 65 330T140 410T253 439Q317 439 365 410T440 332T467 220Q467 153 441 102T366 22T253 -8ZM254 18Q312 18 343 67T375 209Q375 305 344 359T252 413Q194 413 163 365T131
223Q131 127 162 73T254 18ZM374 516L360 527L425 623L603 637Q612 638 616 640T627 647L660 677L675 666L612 571L435 557Q426 556 421 555T408 546L374 516Z" />
<glyph unicode="&#xf6;" horiz-adv-x="506" d="M253 -8Q189 -8 141 21T66 100T39 212Q39 279 65 330T140 410T253 439Q317 439 365 410T440 332T467 220Q467 153 441 102T366 22T253 -8ZM254 18Q312 18 343 67T375 209Q375 305 344 359T252 413Q194 413 163 365T131
223Q131 127 162 73T254 18ZM406 566Q383 566 367 583T350 622Q350 646 366 662T406 679Q430 679 446 663T463 622Q463 600 447 583T406 566ZM612 566Q589 566 572 583T555 622Q555 646 572 662T612 679Q635 679 652 663T669 622Q669 600 652 583T612 566Z" />
<glyph unicode="&#xf7;" horiz-adv-x="542" d="M264 119Q240 119 223 136T205 178Q205 203 222 220T264 238Q288 238 305 221T323 179Q323 154 306 137T264 119ZM264 431Q240 431 223 448T205 490Q205 514 222 531T264 549Q288 549 305 532T323 490Q323 466 306
449T264 431ZM74 312V356H468V312H74Z" />
<glyph unicode="&#xf8;" horiz-adv-x="509" d="M64 -7L39 17L439 442L466 418L64 -7ZM256 -8Q192 -8 144 21T69 100T42 212Q42 279 68 330T143 410T256 439Q320 439 368 410T443 332T470 220Q470 153 443 102T368 22T256 -8ZM257 18Q314 18 346 67T378 209Q378
305 346 359T255 413Q197 413 165 365T133 223Q133 127 165 73T257 18Z" />
<glyph unicode="&#xf9;" horiz-adv-x="541" d="M221 -7Q156 -7 117 25T78 132V359Q78 379 72 386T53 399L14 413V425Q43 426 67 428T115 433T163 441L173 435Q167 422 164 405T160 369V152Q160 105 185 80T255 55Q298 55 324 85T351 158L375 57H353Q328 46 295
30T236 -2Q227 -7 221 -7ZM376 -8L367 -4L359 63L351 88V359Q351 379 345 386T326 399L287 413V425Q316 426 340 428T388 433T436 441L446 435Q440 422 437 405T433 369V80Q433 50 453 38T514 27V6Q479 5 446 1T376 -8ZM564 541L416 661Q409 667 403 675T397 695Q397
710 408 721T434 731Q453 731 465 714L582 556L564 541Z" />
<glyph unicode="&#xfa;" horiz-adv-x="541" d="M221 -7Q156 -7 117 25T78 132V359Q78 379 72 386T53 399L14 413V425Q43 426 67 428T115 433T163 441L173 435Q167 422 164 405T160 369V152Q160 105 185 80T255 55Q298 55 324 85T351 158L375 57H353Q328 46 295
30T236 -2Q227 -7 221 -7ZM376 -8L367 -4L359 63L351 88V359Q351 379 345 386T326 399L287 413V425Q316 426 340 428T388 433T436 441L446 435Q440 422 437 405T433 369V80Q433 50 453 38T514 27V6Q479 5 446 1T376 -8ZM442 542L424 558L543 714Q555 731 574 731Q590
731 600 720T611 695Q611 682 605 674T591 660L442 542Z" />
<glyph unicode="&#xfb;" horiz-adv-x="541" d="M221 -7Q156 -7 117 25T78 132V359Q78 379 72 386T53 399L14 413V425Q43 426 67 428T115 433T163 441L173 435Q167 422 164 405T160 369V152Q160 105 185 80T255 55Q298 55 324 85T351 158L375 57H353Q328 46 295
30T236 -2Q227 -7 221 -7ZM376 -8L367 -4L359 63L351 88V359Q351 379 345 386T326 399L287 413V425Q316 426 340 428T388 433T436 441L446 435Q440 422 437 405T433 369V80Q433 50 453 38T514 27V6Q479 5 446 1T376 -8ZM514 711L648 558L633 544L505 627L375 545L360
559L494 711H514Z" />
<glyph unicode="&#xfc;" horiz-adv-x="541" d="M221 -7Q156 -7 117 25T78 132V359Q78 379 72 386T53 399L14 413V425Q43 426 67 428T115 433T163 441L173 435Q167 422 164 405T160 369V152Q160 105 185 80T255 55Q298 55 324 85T351 158L375 57H353Q328 46 295
30T236 -2Q227 -7 221 -7ZM376 -8L367 -4L359 63L351 88V359Q351 379 345 386T326 399L287 413V425Q316 426 340 428T388 433T436 441L446 435Q440 422 437 405T433 369V80Q433 50 453 38T514 27V6Q479 5 446 1T376 -8ZM401 566Q378 566 362 583T345 622Q345 646
361 662T401 679Q425 679 441 663T458 622Q458 600 442 583T401 566ZM607 566Q584 566 567 583T550 622Q550 646 567 662T607 679Q630 679 647 663T664 622Q664 600 647 583T607 566Z" />
<glyph unicode="&#xfd;" horiz-adv-x="480" d="M79 -259Q53 -259 37 -244T20 -207Q20 -182 35 -166T74 -150Q86 -150 94 -154T109 -164Q115 -168 120 -171T130 -174Q146 -174 156 -150L226 22L68 384Q63 395 57 400T37 408L6 415V431H229V415L183 405Q169 401
163 395T161 376L281 93H257L375 383Q378 391 375 396T357 404L310 415V431H475V415L440 406Q427 403 421 398T410 382L190 -158Q178 -187 163 -209T127 -245T79 -259ZM208 542L190 558L309 714Q321 731 340 731Q356 731 366 720T377 695Q377 682 371 674T357 660L208
542Z" />
<glyph unicode="&#xfe;" horiz-adv-x="557" d="M35 -250V-234L74 -223Q89 -219 94 -211T100 -189V607Q100 627 95 634T75 646L34 657V669Q76 677 112 686T186 711L195 705Q188 686 186 663T183 607L181 383H183L269 428Q276 432 286 435T306 439Q379 439 426 409T495
329T518 224Q518 182 505 141T466 65T398 12T302 -8Q266 -8 234 1T182 22V-191Q182 -204 188 -211T210 -223L255 -234V-250H35ZM300 20Q345 20 374 44T417 107T431 190Q431 240 416 283T368 354T284 382Q235 382 208 356T181 293V154Q181 117 197 87T241 38T300
20Z" />
<glyph unicode="&#xff;" horiz-adv-x="480" d="M79 -259Q53 -259 37 -244T20 -207Q20 -182 35 -166T74 -150Q86 -150 94 -154T109 -164Q115 -168 120 -171T130 -174Q146 -174 156 -150L226 22L68 384Q63 395 57 400T37 408L6 415V431H229V415L183 405Q169 401
163 395T161 376L281 93H257L375 383Q378 391 375 396T357 404L310 415V431H475V415L440 406Q427 403 421 398T410 382L190 -158Q178 -187 163 -209T127 -245T79 -259ZM168 566Q145 566 129 583T112 622Q112 646 128 662T168 679Q192 679 208 663T225 622Q225 600
209 583T168 566ZM374 566Q351 566 334 583T317 622Q317 646 334 662T374 679Q397 679 414 663T431 622Q431 600 414 583T374 566Z" />
<glyph unicode="&#x2013;" horiz-adv-x="542" d="M0 228V269H542V228H0Z" />
<glyph unicode="&#x2014;" horiz-adv-x="1084" d="M1084 228H0V269H1084V228Z" />
<glyph unicode="&#x2018;" horiz-adv-x="271" d="M221 684V662Q176 655 149 626T122 554Q122 524 146 502T211 474V449Q189 436 176 421T149 378Q104 394 77 426T50 506Q50 551 71 590T130 655T221 684Z" />
<glyph unicode="&#x2019;" horiz-adv-x="271" d="M50 377V399Q95 406 122 435T149 507Q149 538 125 559T60 587V612Q82 625 95 640T121 683Q167 667 194 636T221 555Q221 511 200 472T141 407T50 377Z" />
<glyph unicode="&#x201a;" horiz-adv-x="271" d="M50 -154V-132Q95 -125 122 -96T149 -24Q149 7 125 28T60 56V81Q82 94 95 109T121 152Q167 136 194 105T221 24Q221 -20 200 -59T141 -124T50 -154Z" />
<glyph unicode="&#x201c;" horiz-adv-x="469" d="M221 939V917Q176 910 149 881T122 809Q122 779 146 757T211 729V704Q189 691 176 676T149 633Q104 649 77 681T50 761Q50 806 71 845T130 910T221 939ZM419 683V661Q374 654 347 625T320 553Q320 523 344 501T409
473V448Q387 435 374 420T347 377Q302 393 275 425T248 505Q248 550 269 589T328 654T419 683Z" />
<glyph unicode="&#x201d;" horiz-adv-x="469" d="M248 377V399Q293 406 320 435T347 507Q347 538 323 559T258 587V612Q280 625 293 640T319 683Q365 667 392 636T419 555Q419 511 398 472T339 407T248 377ZM50 377V399Q95 406 122 435T149 507Q149 538 125 559T60
587V612Q82 625 95 640T121 683Q167 667 194 636T221 555Q221 511 200 472T141 407T50 377Z" />
<glyph unicode="&#x201e;" horiz-adv-x="470" d="M249 -154V-132Q294 -125 321 -96T348 -24Q348 7 324 28T259 56V81Q281 94 294 109T320 152Q366 136 393 105T420 24Q420 -20 399 -59T340 -124T249 -154ZM50 -154V-132Q95 -125 122 -96T149 -24Q149 7 125 28T60
56V81Q82 94 95 109T121 152Q167 136 194 105T221 24Q221 -20 200 -59T141 -124T50 -154Z" />
<glyph unicode="&#x2022;" horiz-adv-x="361" d="M180 241Q131 241 97 275T62 359Q62 392 78 419T120 462T180 478Q213 478 240 462T283 419T299 359Q299 326 283 300T240 257T180 241Z" />
<glyph unicode="&#x2039;" horiz-adv-x="212" d="M162 61L22 200V206L163 345L180 333L106 204L180 73L162 61Z" />
<glyph unicode="&#x203a;" horiz-adv-x="212" d="M50 61L33 73L107 204L32 333L49 345L190 206V200L50 61Z" />
</font>
</defs>
</svg>
